<mxfile host="app.diagrams.net" modified="2023-06-30T18:24:14.070Z" agent="Mozilla/5.0 (Windows NT 10.0; Win64; x64) AppleWebKit/537.36 (KHTML, like Gecko) Chrome/114.0.0.0 Safari/537.36" etag="FwXd70R4-ESW7UyV1Trx" version="21.5.2" type="device">
  <diagram name="Page-1" id="IkQfMWUzoaYhLKrV37K1">
    <mxGraphModel dx="1079" dy="719" grid="1" gridSize="10" guides="1" tooltips="1" connect="1" arrows="1" fold="1" page="1" pageScale="1" pageWidth="2500" pageHeight="2500" math="0" shadow="0">
      <root>
        <mxCell id="0" />
        <mxCell id="1" parent="0" />
        <mxCell id="BbYELcP-yc5a0bBlkMtF-11" value="" style="group" vertex="1" connectable="0" parent="1">
          <mxGeometry x="270" y="540" width="389.02" height="290" as="geometry" />
        </mxCell>
        <mxCell id="BbYELcP-yc5a0bBlkMtF-12" value="" style="group" vertex="1" connectable="0" parent="BbYELcP-yc5a0bBlkMtF-11">
          <mxGeometry x="28.115491634445117" y="14.85692307692308" width="349.14520398944813" height="260.271282051282" as="geometry" />
        </mxCell>
        <mxCell id="BbYELcP-yc5a0bBlkMtF-7" value="" style="shape=image;verticalLabelPosition=bottom;labelBackgroundColor=default;verticalAlign=top;aspect=fixed;imageAspect=0;image=data:image/png,iVBORw0KGgoAAAANSUhEUgAAAkMAAAGYCAYAAABBKObqAAAHTklEQVR4nO3WsW3DMABFwRSchhwyWlKcx3aRIKnSmUDeXSESAotfvnFd1+cHAEDUeH2eQXQd3gEAcMT4utz3vU4OAQB4t7XWPX7+mHPuU2MAAN5p7z1f5/jrIQDAfyaGAIA0MQQApIkhACBNDAEAaWIIAEgTQwBAmhgCANLEEACQJoYAgDQxBACkiSEAIE0MAQBpYggASBNDAECaGAIA0sQQAJAmhgCANDEEAKSJIQAgTQwBAGliCABIE0MAQJoYAgDSxBAAkCaGAIA0MQQApIkhACBNDAEAaWIIAEgTQwBAmhgCANLEEACQJoYAgDQxBACkiSEAIE0MAQBpYggASBNDAECaGAIA0sQQAJAmhgCANDEEAKSJIQAgTQwBAGliCABIE0MAQJoYAgDSxBAAkCaGAIA0MQQApIkhACBNDAEAaWIIAEgTQwBAmhgCANLEEACQJoYAgDQxBACkiSEAIE0MAQBpYggASBNDAECaGAIA0sQQAJAmhgCANDEEAKSJIQAgTQwBAGliCABIE0MAQJoYAgDSxBAAkCaGAIA0MQQApIkhACBNDAEAaWIIAEgTQwBAmhgCANLEEACQJoYAgDQxBACkiSEAIE0MAQBpYggASBNDAECaGAIA0sQQAJAmhgCANDEEAKSJIQAgTQwBAGliCABIE0MAQJoYAgDSxBAAkCaGAIA0MQQApIkhACBNDAEAaWIIAEgTQwBAmhgCANLEEACQJoYAgDQxBACkiSEAIE0MAQBpYggASBNDAECaGAIA0sQQAJAmhgCANDEEAKSJIQAgTQwBAGliCABIE0MAQJoYAgDSxBAAkCaGAIA0MQQApIkhACBNDAEAaWIIAEgTQwBAmhgCANLEEACQJoYAgDQxBACkiSEAIE0MAQBpYggASBNDAECaGAIA0sQQAJAmhgCANDEEAKSJIQAgTQwBAGliCABIE0MAQJoYAgDSxBAAkCaGAIA0MQQApIkhACBNDAEAaWIIAEgTQwBAmhgCANLEEACQJoYAgDQxBACkiSEAIE0MAQBpYggASBNDAECaGAIA0sQQAJAmhgCANDEEAKSJIQAgTQwBAGliCABIE0MAQJoYAgDSxBAAkCaGAIA0MQQApIkhACBNDAEAaWIIAEgTQwBAmhgCANLEEACQJoYAgDQxBACkiSEAIE0MAQBpYggASBNDAECaGAIA0sQQAJAmhgCANDEEAKSJIQAgTQwBAGliCABIE0MAQJoYAgDSxBAAkCaGAIA0MQQApIkhACBNDAEAaWIIAEgTQwBAmhgCANLEEACQJoYAgDQxBACkiSEAIE0MAQBpYggASBNDAECaGAIA0sQQAJAmhgCANDEEAKSJIQAgTQwBAGliCABIE0MAQJoYAgDSxBAAkCaGAIA0MQQApIkhACBNDAEAaWIIAEgTQwBAmhgCANLEEACQJoYAgDQxBACkiSEAIE0MAQBpYggASBNDAECaGAIA0sQQAJAmhgCANDEEAKSJIQAgTQwBAGliCABIE0MAQJoYAgDSxBAAkCaGAIA0MQQApIkhACBNDAEAaWIIAEgTQwBAmhgCANLEEACQJoYAgDQxBACkiSEAIE0MAQBpYggASBNDAECaGAIA0sQQAJAmhgCANDEEAKSJIQAgTQwBAGliCABIE0MAQJoYAgDSxBAAkCaGAIA0MQQApIkhACBNDAEAaWIIAEgTQwBAmhgCANLEEACQJoYAgDQxBACkiSEAIE0MAQBpYggASBNDAECaGAIA0sQQAJAmhgCANDEEAKSJIQAgTQwBAGliCABIE0MAQJoYAgDSxBAAkCaGAIA0MQQApIkhACBNDAEAaWIIAEgTQwBAmhgCANLEEACQJoYAgDQxBACkiSEAIE0MAQBpYggASBNDAECaGAIA0sQQAJAmhgCANDEEAKSJIQAgTQwBAGliCABIE0MAQJoYAgDSxBAAkCaGAIA0MQQApIkhACBNDAEAaWIIAEgTQwBAmhgCANLEEACQJoYAgDQxBACkiSEAIE0MAQBpYggASBNDAECaGAIA0sQQAJAmhgCANDEEAKSJIQAgTQwBAGliCABIE0MAQJoYAgDSxBAAkCaGAIA0MQQApIkhACBNDAEAaWIIAEgTQwBAmhgCANLEEACQJoYAgDQxBACkiSEAIE0MAQBpYggASBNDAECaGAIA0sQQAJAmhgCANDEEAKSJIQAgTQwBAGliCABIE0MAQJoYAgDSxBAAkCaGAIA0MQQApIkhACBNDAEAaWIIAEgTQwBAmhgCANLEEACQJoYAgDQxBACkiSEAIE0MAQBpYggASBNDAECaGAIA0sQQAJAmhgCANDEEAKSJIQAgTQwBAGliCABIE0MAQJoYAgDSxBAAkCaGAIA0MQQApIkhACBNDAEAaWIIAEgTQwBAmhgCANLEEACQJoYAgDQxBACkiSEAIE0MAQBpYggASBNDAECaGAIA0sQQAJAmhgCAtF8xtPeep4YAAJzwHUNrrfvkEACAEx6BqxZiDZhRKwAAAABJRU5ErkJggg==;imageBackground=default;" vertex="1" parent="BbYELcP-yc5a0bBlkMtF-12">
          <mxGeometry width="349.14046256410256" height="246.02460954721204" as="geometry" />
        </mxCell>
        <mxCell id="BbYELcP-yc5a0bBlkMtF-6" value="" style="shape=image;verticalLabelPosition=bottom;labelBackgroundColor=default;verticalAlign=top;aspect=fixed;imageAspect=0;image=data:image/png,iVBORw0KGgoAAAANSUhEUgAAAKAAAACgCAYAAACLz2ctAAAACXBIWXMAADsTAAA7EwGMktzaAAAWhklEQVR4nO2dB3gU1RbHD70nNFEE6aGFAAFClyIggtI7SO+9IyiCgEhRpIqClKcU6b0TCL333ntHeocAb/4XNm5m7uzObpK9CZyf33y8N9smu/+597R7bsxMuYq9JoZRREzVF8C837AAGaWwABmlsAAZpbAAGaWwABmlsAAZpbAAGaWwABmlsAAZpbAAGaWwABmlsAAZpbAAGaWwABmlsAAZpbAAGaWwABmlsAAZpbAAGaWwABmlsAAZpbAAGaWwABmlsAAZpbAAGaWwABmlsAAZpbAAGaWwABmlsAAZpbAAGaWwABmlsAAZpbAAGaWwABmlsAAZpbAAGaWwABmlsAAZpbAAGaWwABmlsAAZpbAAGaWwABmlsAAZpbAAGaVEKgEmTZKYCuXPQ9myZKLsWX0odaqUlChhAnHEjBmTnj1/Tnfv3qcr167TiVNnaffeA7Ru4za6/+ChpfePFi0axYwRI+T/v3z1il5pR1iIFfO/r/BFcHCY3gvEjBmDomn/gdfaf8HBLy29LlGihFSmZFHK7edLfr5ZKHmypOTtlYhiaO/3QPt+7t67T+fOXxTf2/5DR2n7zr308NHjMF9vWFEuwBQfJKPKX5WlMp99SrlyZBMiMSN+vHji+Djlh5TPPyfVrVGJnr94QctWrqXRf/yPLly6Yvpan4zpaf4/4ylO7Ngh516/fk1Hjp2kxq270Z2791y67haN61LbFg3E9dgI1gS4ZftuatXxW5fFWOnLz6nPNx3ISxONPb9PmEK/jplg+ro0n6Sijq0bU9lSxShOnDjS5yRLmkQcGdOnpVIlioZc6649B2jG3MW0VPv+VKFMgLhDe3RqSRXKlRajm7vEjhVLCPiL0iWo/5CRNHv+UtPn2osPQOy+2TJTvZqVacz4vyx/ZoL48ahDq0aGHxx/R7EiBbQfuQitCFxv+f1iaKNyzy6tDeID8ePHk7ziDW2bN6DWzesb/i4r4FoLarMNjioVylKLDr3CPBu4gzIBjhz6A+XPmyvc3i9u3Dj0U98e9PrVa5qzcJnh8ZOnz9LNf2/RB8mTGR6DYFwRYIB23WajDShaKMAlAfr5ZhU3pIz1m7YbzkGwg37ooQnnC8uf4YjiRQtSvjw5aceufeHyfq6gTIAZ06eJkPft17sLHT91hg4ePmZ4bM26zVS7ekXDedibXpoNZdWWxPTviAAXb6wiBfJKz8N227pjt+F857ZNw018Nrwlo68nUCbA6NGjG849evxYuwv30wHNSIaIrl2/KX4EkFBzRFJptl+O7Fmo3OclKa1m+8jAlNy9Y0tq0KKz4bFAEwHiWgoE+NPqtRstXbuzkTtDujTCobp9566l9ytcMJ/0/NoNWw1OCMTfvFEd6fNh1y1fvY5WB22io5pte/3Gv/Tk6VPhKCVIEF/Yzri2vP5+9Gnh/KG+QxXTL1AmwGfPnot/Hzx8RCu16WrJijW0fddeh17foSPHaeWaDTRs9J9Us+pXwmiXTYXwpDGt6UfBrZqDAJEniB/f+JqAPJYEiKk+R/asTp8XoE1puFZnxIsbl3LnzC59bJXk9XA4ZDcvxNasXQ86duK04TE4RPCCccDpwncN8uTOQdUqldfsYB/p6zyBMgH27DtYhFfWbdpGT58+c/n1s+YtEXf8kP69pI8jJKEXIDzmDZt3ULkyJQzPL1Qgj6XPze2XnWLFcv61YRq2IkDYXhi19eA72bAltP2XNIm3GKllfD/gF5dFtGffIXGoRJkAN2/bFeb3mLdoBTVtUIsyZ8pgeAw/rIzAoI1SAWbKkE5zUJJqjspth58ZkMc4/ULoGHGtfL6ewib238YtOww3ZtbMmaRhqidPnoobOSqiPA4YVpasWEtd2hkFiPCKDASuMXLKQj+YuhctC3T4eTIHY8z4v2ncyJ9CncumiQV260PNxHCEmQBlo6e3t5f0uTBjENOMikR5AR48fFR6HgFiTG2Ydu2Bp7tj937pD1/QiQCRpcAUbA/sqrXrN9OVq9eFkW8Ddlre3H603sHIlCSxt8j66HnxIlhzQLYYzj9+/ET6PsmTvQk037p9x/SzIitRXoDXNOPbDG/vRNIpNVDzEmUCLJxfPhrZgPMRL17cUOd2amIGO3bvEwFxezANOxIgRlzZlLpt594Q79+es+cvSt8HYv+mcyvq8f0gh9cfGYnyAnQ0xcHDlBG4bhP16dnRcD7Vxx/RJ6lS0sXLV6Wvk4Vfdu55K8BdRgHml9iL9phNv6vXyp2XCxcvi3RjmtQfGx5DXDCeNur/OHSU8IijClFegC9fOkjWm+SVr167QYePnSDfrEY7sZAmiouahy1DFoDe/jZ7sF2SRcjhm4XixIkdEnLSI4v/IR6HOJ4ZU2fMo2+7tZM+9kXp4lSyWCFarJkR8xYt126OA6bvE1mIdAJEoDSXXzZK+VEKEZ1PmCCBsOPg6SGVBvGcPntBVHaEpfpkTdBmuQC1aXGWRICYKvP5+4U6B+PfFvrAyITA+UcffhDyOGzQXJrNKEtxYaTFoWfv/sP07y1zT3zqjPlUo8pX5JMxnfRx5IWrVy4vDoyEazT7FCMqpnWrlTWeJFIIMF2a1FS3ZmVtCvtcGOZWgCeL0qLTZ8+79ZmrgzZSh9aNDechQBlZM2cUJU/2oBzMPoMAO7Bi+TKhnoNpWCbAQi54v/bgpuvQvQ9NnzTa6Xf1YYrkomIIB2zKoI1bRXA7aMNWg3OmCqUCxPTUtX0LalSvusMyLBkIoyCHi8MdMHJd0my91LpRCN4kSrdQvGCPLP6nn+IwDesFaBYPNMv/mtl/9pw6c57qN+9EY37pT+nSfuL0+QA3D64Nx/37D2jh0tU0bvI05faiMgEiZDFp7M+iRk0VcEYa1athOA/nQC9AmZD0I5tspPPP5SuqV/S2akHJSIs02aUr1yxcOdHxk2eoUu3mohyrYZ1qBu/cESj7ql+nKtWs+iWNHvcXjZ88XVkcUYkAkVKaOmGk1AayBxXQ1zSbz1a5izwskvyJvb1cHjFloDhBJsBC+f3pr+lzQp0L0Anw8ZMndOjo8VDnzl24RDdu3hJFtjYQj8yRLbOoQraRPYuP+Dv0yHK/jsA1DBs1niZPmSkKWuGFuzIjII/erUMLUQjcvntfxw5dBKFEgKjbMxMfRDdt5gJatGy1mCZlXwqmbqTOYJfl1L482DjugIpgBJIT6zIM+fPmFrE1m32XXpvm9PV6cBZkRj3swK++KBXqHEZPewGa5Z1XWph+Zdy+c48mT50tDoSSShUvQqVLFhU3jZViX1Sj9+7envoNHuHW54cFjwsQX4qtLFzP1es3qFHLrnTm3AWH74GwxuGjJ8SxYfN2twUIca/TDHN9/A72Uo7smenAoTfFDLL0G4QmA9OwXoB4/cS/Z4b8/yKS8AuCzKdOn3PxLzByWZvC//5nrjjwdxQvUkDkvksUKyQterBRr1Zlmrd4hbSOMiLxuABl9XgAo02bzr2dik9PWMr5AbIiegGCQvnz/idAif1ny4DokcUD7eOHqM2TxRNdnX6tAM8XpVc4YPY0rFtdFG/ISthg0jT+ugZ16TUg3K/DER4XIMrVZWAxD+r9XCWBgzUTVkB51rNnzww/CsIx4yZNE/9b7wHDTNh/UJ6Dxg2EOJ79lI14Jip2Tpw6I5wSmcOwys3p1yqYpof/NlEUrML+llVAY7SEED3pkHhUgLgLZcY32GEyojhDH0ZxFVQMb9m+R2QQ7EEhAaasZMmSCLvKHojPURwN03D5sp+FOheQN6cQYOECxukXpodttI1oYFf/OvpP6vddF8Nj8I7hQHkyNONRASb2Ng+c3rl716339M/pa/pYdIueMoLSegHC486tjVYp7TIbNszsv/8e328UoDaKwrkqXNAY/wtca556iwgc1Q4i83Sd3lEBPn1mXvmMP9xVYseOTVUrljN9HOsgrLB2/RZhg+pL3VEdkyxpYsPzna0e2y4RKASYULuenL7Gcn53vV93cbT+4+Ejx/WL4Y1HBXjnjvnibyw2cpVeXduEyr3qQagHnrIzUEe378ARsUbCHtiBKOmyB7V6ew8cdvh+8GZv3b4bSryY2pDDjWHXmQFg4ZKZQxNR6GsabSDe6unMiEcFCHvLrJyodIkiIndp5QuAoYyVb1/XquLwebC3rK7PRVZEL0AURegFc+jIMUtrWFCmheoUe1o2qWt4HooFrK5IQ5U3DnjuVlfc6UGJWodWxhw42BIOyyRcxeNeMNY6oBOBHnihY3/9kZq37+nwy4VIvunU2iAWGRXKl6Yhw8fSI5NKYnvwo/bo1CrUOb34gFVnCdO0XoDIM+txJfyCvPmnhQOob69OFLRhC81fvFITzW5xY1sB4kUSwCdTeunj02YtsHwt4YXHBQhDvE71itKlhchqrFo4leYuXCYS/ZgakcpCNwMsXUSONr0u+Y7R4/zFy4bzADZX/TrV6I+JU51eFwLBqKxxlpu2LEAnjgrAlAcBWQUZIADvvGyp4uKASYB11KhvxN9w5eoNYcc900bpOJoj9aa4Ip0Ifzly2NAfBqEwT+NxASLJP2fBMrGuVwbiU03q1xKHMyC+b/sNFWVZ86aNkz4HgVck261McxgFHQkQmZM9+w46fR+AYgE0PHJUMoVyfVfKol5J0pJYIoqF5nl1tYquALOo36ARbr8+LCjJBfcbPFJMA47uSGdg9Ojaa0DI4h3kjvWlUODy1WuWbSwIsGWTeqaPHz1+yqWWZsg1I89qhpV1w/bsO3hEWkUTFk6dOUcNW3ZxuTtYeKFEgM+fP6cmrbvR4P49xTTiKhu37KTvf/xF5D1t/Dh0tCgisPeKZ85dTIN/HWv5ffEDYzo3a/uB3jKuAAfDTICoyQuSrHxzxKjfJwvTpWHdag6bI1kBo/nUmfNp+JgJlmzkiEJZPSBGknZd+4hEecum9aTl8fbA1kHhAJLsKC/Xgzu4cZtuNGxgbzHiDRn+u/R5zuj23UBq37JhKIcBVS8wHSZNmeXSey1Yskosu4Rta18IgKWhE/6a4XJHCFRD/zxynHgt2tqh+4O/5oy50p4N1T9YM/LPnEWGmkcVKC/JR24SB0IzGMHSpk1NSby9hMENkWINCOwpxMpQ/+YIxN8q1W4WpuvZd+AwNW3bI0zvYQOjDEbm8AY3m63iBcH4bJkziipun0zphMOGoH7ChPHFjXNPG2nvaaI7dvI0HTx0TBS9hkcn1/BCuQBtwBB21OGUkQNzBrWG9vWGUYlII0Dm/YQFyCiFBcgohQXIKIUFyCiFBcgohQX4HoH+hogX2paZit47CRPQ69ev6NGjJ2ItCzJBWJtjdceAMF+TRz6FUQYyOhXLl6bPihUWC6KspPCQSdq97yANHf6HSE9GJCzAdxRs4YWUItYou7p0FflmLCEYMqAXla1cP4Ku8A0swHcQVPS0x1ZibmzhZY+scj28iXABVq34hdiXAzWAVit3GfdBnxf0ewFYmI6ehTc12w7FvcgLo880CjuiR48mFm1hGYRf9qyh+lvb8MTy4AgX4Hfd2on1pm2a16ff/vybZs5ZHKmS4e8ayAmX+qqOEJwrZVYoEB7Yp3uoc+6uO3GFCBdgjz6DaMTgvsLr6tuzk6h0Hjl2kiggjapbC0R23CnqQFdYLFbCiPjf+1wOz8uSEuECRBFn3aYdxD4aKBXCUslfBn5HLRvXpWFj/nS5yJOJOLCNmT2eaFTkEScEf0jVei1p/KjBIftioCT/jxE/0fGTp0WhJ4okeWpWi36NtSe28fKYFwxjuEaD1jSgd9dQW41m8cko9nuD4Txlxnz6Z/ZCUbXLeBbMTPa7v6OY1t1+Pa7g0TAM+vphMxU0d+z9TYdQZeqYnru0a0ZtmtUXfer+N3W26cYsTNiwLRPA74CGSUDfgnjrjj0eWaikJA6I9QjoMDVsUG/R6dQeNAWydXZHr73Z85fSisB1pnttMNZA2g2rBmtU+TLEDMKS0Eq1moqm5/pNc5atXOuR61IWiD5y/CRVrtOcenZuQ1/XlrfYKJAvtzj69uwo1o0sWh4oOg6w92wNZDTQ3wZ7hmB1nj4wjRnI28tLPK940YIh52ECLV0Z5JFrVJoJwaiGvsRr1m/SbMNupr3+0GoWcSocsCWXrQoSLS327D/EYtSBdiIFA/xFW5AynxWTdveygQX7yPni+fYL6LHYydkCsPAiUqTiNm3dReWrNaJObZuKNa+yniw24Kk1qV9THKjeQBgHW9tv02wWT31pkQ10iS0QkIdKlyxCpUsUdbqBDW7iXj8MFt87wBJPG9j96e/pcyP0eu2JFAIESNMNGvYbLdam2T6ag+Kfy3nzIQS3a1WrIA7YM7v3HhTNj7bv2kuHj55Usu2AJ0B3MD/fLKLfC47cfr6WdnHHbAGbGmumbeVWos+MXROlUb9PEik7TxFpBGgDtWg1G7YVJUTdO7Zy2P/PHnyRsHdsW21hTTH6uOzSRLn/4BE6cPiY082jIysY4eC1opwK7Uxwc8p6PDsCrXn7DBwmPF97SpUsGvJeaCn3lwdHPxDpBGgDG0evXruJGmhTcvNGdVz+wtEZq1iRAuIAuPvR/QoLs7HQHX1eEIJQvVWVHjSyzJwpPflkzEBZfDKI7SJQRCrrJmYF/H0jx06kOQuXS+3lGpqDAjAtd+7Z3+M2daQVIMC0jE716FvXrEFtalivuhCWO2DaQshHH/ZB+gk7HJ07f0nsx3vl2nXR4gz/3rx5K9ynI4SZUiRPJhqfp9aOj9/+CwcMQnP1RjMDHVonTZkpHAqzFiCYXbBnCZ6LbhAqbsZILUAbmDpHaHfxRO0LRXNLOCr6nYvcBaVi6Etj1psGdiQCsqgMefDgkRDsI216f/S2rAmPB78MFlXEsWLGotixY2n2WCxhkyHs4aV58Ik1pwC7MSVJ7BXmpkLOgIgmT51F02ctdFr+BmcPEQUUh+AmVEGUEKAN1Leh2SRyx1UqlKX6tauIVF5Egh8JYg8vwUcUsJ0hPAjK6r7A6C6GaVclUUqANtAPBa3XcMAwr1ujMpX7vESYK4CjGnC0liwPpJnzlri1yU9kIEoK0B54dTgQ0C5XurhIN+XPl9ttoz2yg2l/09adIlyFhppRvco8ygvQBuzE2QuWiQNFlUg9YdfIAvn8LcXIIjMIsCO+GRi0WTS19GScLqKJ2r+MCTDEp86YLw54zZ8Wzi+S7Ug5Wd1hXCVwaBAm2rxtlxjtEGB3pZd0VOKdFKA9sJNsTTDBRyk+0KboXOTnm1Us4MmWxUeERlSCMMiRYyfEfnG79h4QTTJd6UUdlXnnBajn2o2bIsiNA8DLzZAuDWXKkFZ0yM+UMZ1YjohVYthYMTx2ZgcI12Bkvnj5qug+cPrMedEgHMFwBIHfV947AeqBMNArWdYvGek9BGuxY2ZiLy+xug/xvPjx4wm7Env/4t9o0aJTcHCwOJ4+ey7sUST10RoXSyL/fXtYDY+8T7z3AnQE7C5uHRyxsAAZpbAAGaWwABmlsAAZpbAAGaWwABmlsAAZpbAAGaWwABmlsAAZpbAAGaWwABmlsAAZpbAAGaWwABmlsAAZpbAAGaWwABmlsAAZpbAAGaWwABmlsAAZpbAAGaWwABmlsAAZpbAAGaWwABmlsAAZpbAAGaWwABmlsAAZpbAAGaWwABmlsAAZpbAAGaWwABmlsAAZpbAAGaWwABmlsAAZpbAAGaX8H8sCIAz8BBmvAAAAAElFTkSuQmCC;" vertex="1" parent="BbYELcP-yc5a0bBlkMtF-12">
          <mxGeometry width="19.728971957154513" height="19.728971957154513" as="geometry" />
        </mxCell>
        <mxCell id="-h5bWP533X3mAIDnknY9-2" value="" style="shape=image;verticalLabelPosition=bottom;labelBackgroundColor=default;verticalAlign=top;aspect=fixed;imageAspect=0;image=data:image/png,iVBORw0KGgoAAAANSUhEUgAAAMAAAADACAYAAABS3GwHAAAACXBIWXMAADsOAAA7DgHMtqGDAAAp2UlEQVR4nO19CXgc1bFuVXePNi+SrJnBrLZszGJ4EMAQtgAJvMsaEkJM4CaxJdlglmsHY7zMvCTXWbAkG4MDD7jepBE37wZwEnKzsLyEYCCENUAIIWwWxhBsNNq8W5rpU7dOz8jIxt0tzXTP2v/ndvdMn+k+6q7/VNVZqjTw4KGIoWW7Ah48ZBMeATwUNTwCeChqeATwUNTwCOChqOERwENRwyOAh6KGRwAbXLcSfCPKaoKlhGOR8CACGIsAQVCgkvejBeFoBaiSEEZzcbmNQoJSQPls0UdEPpR7IJ/8jn+jE2AMiOIo9wAxQorJYyLYAUDbuMw2vt42vt9WArGNv9+GqHQCwSeCYItQ4BOKdmy5fT7szPLjyXsUPQFCbaNqiErHI2ItCaxVFBrPglbLQjqOBXEsC2c1Cyf/48Jo/NsHivEF7vv9oA98XdivhCSBBoiDiifL4Kc/HjhEZtreorxXIbFBMMh1h51ItIXJ8hF/s5FJ9j6R8j6TaGNM6O/fsan7n7AYRFoPqMBRLATARa1VLNC+ySzYxylIk/mryYB0DO9HDwgYKsb/+wg6fkbkcwdcsxHMjom8n8gfz8W9FUdQVQ1C4wMxiMAG/urvXO5NEOJNUPQ3t2/tefvuOdCX5ernBAqOAFOngjrpsurjhNCmKIincqt4Cr/8yYawwD7tK3y2PS8ssPbx8e6Y5HYlKJLhCoysDOisPTbwh1dZg7xEAl5mu+yVpTM6t2e1wllA3hNgfmtgrEpwLsvyGYoiBR5O4q/LjXcNud2CZwv8TKQVdZSxIX5DftKIRLgt8Dabfy/x9y9CPP7Ukpk9f+djym5t3UXeEeDmlf6DK0rgXALlPFToPH6dRw8+74l7ikDDADyWH+CxvJ8GPh+E24LseNNTTIGndIivb67veQMKjBA5T4DZd0HpqFFjzhGoXYxAF7Nal+p8P1PGg0vwMzGu5Md8pQoJQhDB7xH1R0jve7yxYUc02xVMFzlJgIUrqyvVEvVSUPCr/PFiFvSRCYvGE/gsw48I1wCo16BSLkKR8uf4nfwqDvDwsrqODdmuXCrIGQJctxIq/CX+y9lRu5pbmYtY1kuzXScJ1ve7mXZb+HAzO9RbjGOCHgLcBii2ooCtiWPcivHY1pjm2630xWJ9oMZU6ItpoMV6oMfo7181C+LnLQb1pNHgi2tjfCMrYz7sF1ocSn0CdJ9P00p1BUZrgipJUSvZOR2tIFUCKZUk94hBNkkOZiEcmxiPwOqsPRg2mfhZnMVHZ7GnvSwcCbwiCB/op/gDdzR0f5i1eg0TWSfAwrWBsxUV6vjwKn6oo+R3mMGGngWpi4WqnQ838Id2Jl47IrXH4/AxxvUtzbN6tjp5v/WL2ZgG4Eaze/en36Y2niXNw5KKqrGqqhysgTKeFJzAf8MEkN2iiBOQ6LCkbe8+EE9mRpxcRmpTKBJ8kkC09nV3/vLOW2C3/Y+zh6wQYMFa/yhNxWncct7Awn5cJu7Jgr6J/3+dD9/gluofpIs3d+8U79w9p3tbJu7vBhJ9+b0f8KHcnt///NTFUFJ7uL9WVehY1qyTgXAyf30CP4djkl2kziOhGc5HUM4vqwn0hNqwlWJ0X9PM6Huu3C9NZJQAc9tqDi0H/A4/pVnGAJRL9yGjJaeX+IW/TCReht2xvzbduLXHpdvlLNYthn6Azrf5UG6/GvheEmP8uMBkDeEUNqOm8LOaws/sRKdJkTTRbmH/eS470L/meyxrrOt41sl7pIuMEOCWljGHlylamA8beCtx9uoUZ0F/he3xp3SdntX7+p67/YYdHc7eo7CQIEb0NT6U21r53dw7oLysOjCFFDiTG6ZzeDtbNlJO3A8TRu1X+P+vsK/wtCD696b6zvVOXDtduEqARfdWVkNF6fdYJ94EDgo+mzNvGN1xRH/Yuguevvemjh1OXbtYkbDVo8/wodya5Yh67UX+k1QFL2D5vYC/Oxud6JhAPEdBfJL9hCeEDvOaZ3T8Ne1rpgG3CICLWv2zFFRuY/qPSftqBHsI6Q9E9Jt+IR7Np16GfMW6daDDus6X+VBuTbcugxG+gF/a9pcS0OVsLo1N5/pMpvNVlV5hjdCyO9638M6Z27qdqfnw4DgB2ME9WtOUFj48M60LEexi2/R33No/FItGH/Wm/mYXieff+Ws+lNv1obVjTidVm4pIU9nEOSyliyZ6qGaW+couX9RSOqepIfqgk3UeChwlQKjNPwtJuYMPK1K6AHusBPgEon5/f7TrYU/ocxbUOKP7Od7Lbd7CSOALKsC3WdtflYrfINdXoIoPsPxcqsfhpkxOynOEALI/emRlYCW3BNNTGqwl+icL/lrRF1/bPKtnkxN18pAxUHNd9GneP33dSvhOjS/A3gPOYjE4Y7gXYvPq25pGUxatCVyeqW7TtAkw+64xo0dVqr/j6p893N+yefMC6XTn85uiv5ADROnWxUN2sWoWm60QbePDtkUR/yls53+HG8VrWDaGIWd4LProxVBLzcWNDV0vuFbZJNIigBT+kaPVP3KlTxnO71jw/0hC/ChXusI8OI+mus6/8G7aLS1j/k+poi5gGbl2qL1IxviBqvwhFAle5Pa4QcoEkGtlR5ZpD7OqG7Lwk1x8QbTAE/ziQbLHbvaC1WOatRL1B9z61Q1tegaOBKTfhFprzmys73rLrfqlTICaUv8SFv4vDaUst/gdoNOCxobo/VBg88k9DA1Lr+2W65ZnLFwbvEvV4F4YQi+h1ASE6i/m3gFT3JpTlBIBWDWdxeycN5SyBPQgwJ6bGhu2d6VyLw+FheTA19nhtsAcIGxiKS+zKs9m0+SymuCPuQ0dkrwNF6lpAITlaDNnk02dGAv/v7EtuCqle3goZNCS6dGfhNuqnyTyPcySNMG6NM1e1FJ5T1PD1nanKzJsAixsCcq5Ip+3LESwC0Fc3ljX9UTKNfNQ8Fgyvef1UMvI00ktf5wb1JPMyhmT9NRSOZ3GcS0wbAIoCl1juTKLSOgIX2+e7gm/B3vIZZXzVuK/lJaVv8gfa00LEv0r5AIBWPa/YHWaPdx7m6dHH025Rh6KDstnbe8MtZTWo6qsNysj5x7NjwQnOr30ctgEQIJxVgogTnBXOhXyUJxobOh8KhQJvs7+wAlmZXygjweA7BKAW/gRVt6v0h/35uJ7SA0IlrJDgCOcvuXwNQDix7wbZ3ZeKdW+xrvWdCrlofhw630jg2xdnGnpXgL80+n7Dl8DELzHasqUAPwH/DC8esQjS67d+UlaNfNQVPCVV6xg2bGeRbwrlv1uUEzYYOebn8fDwFfxWKhNuaBxujf45cEeobbgcparaywLEfW6sa47FR9gg+2MZ8TPIZS/tGhN2ZVNM6OvplY1D4UOYybxaC3Ch1fYlSWHnd8BpNANKmPoDGnSfy1q+FwoEvjxjm3RZV44bg+DsbAtcLEKeA9Y9f0PApvdjps/EsPXADHWAEMMnpGY/oo/GjU6MG1hi5jf3ND138O9n4fCQnLJbDMffmU4v8sZDbBHjb1fMdwAD4iTVFX9lQyfR4S3NdZ3PAzerNCiQnhN9fGk+cJsQVwFySQ3w4Kg3NAAK+p7e9lp6WIjqGbYd0M8mbXCL4w49AD3iZ399xdjwKpigQytMuES/yUK4o2EcOG+uXeGByLKDQ1gQMbSRBw+AfbCiOm/QqkobWKt8JAQoq1pU9d6L59VYSC0yn8UlCjfRKB6lpPDHbko6rmhAQwkHJJT0767MRccpymqOi00PrAF2mAdED7YuLHjOY8M+YVFrVXjEUuuYhPn6k9ndjoT/FJOrd/wSK8rsaBSI4Bgh8ThmMPJQEuz+ZnNDtUGOzBCjwkBj+zB2OPS7HL2bh7SxXmLQTvjCP9ZLAeXACqXsKgfnzjjQsRXhA+MQF0uIB0N4BqMPLwoNQNMqwBfPNwWfJEErUfQ13f2dz+biD7gIaNYDMr8cYETfAqcy2/oi9wqn8eNVmVG7k3uyVtKBJAOCVovCPtAhjHk/az0Iw4bITXORAXP5OqGa0oDsVAbvgwknmWSvNAfi720fKYRItyDg7i5taqqAtVTBCin8as+EwnO5uddNXDe5v0PHUQyplDUSMVkXsi17DOpEaCfHZIycxuIAPyNddHZ8yPBFT6i73KT/q3hxYYxR5JQZ7DaNQIvlfpK5BrlqAyHzrbnXwjodT1Of3v/sc733FKbhYYFa/2HaIo4jp/pCYTKyUh0KiEcCYPDNzht2RA8L4h+0FQffSwcCdhMnlRySwM0b+75KFwb7AeTiM8yJ2949YiDliQWL9Tf0jLm+6WqeqMRGyaV7lMbcGMU4P8v4cNLZFpUTUOYdFmwP3QpvMUf32Bt9Ca/yHdjgt6LYby9GH0KI3rfqJpagThRIZjEon00NxrHsyAen2jZB2VhQ3eSy3LjpPN/D/N2V2O9EYk6+T1MtLofoZ5bGkD20FAbbeTHdJRZEVJKJwAkZoQmY8OE5t4BPyyt8X8TCa/nlnxYwbRSQElyccUJA+rapyL4mLPhSLCbEmr1fQL8EEl8JKd56zp8jErsow0f9H6ciKGfN0BucILCV34YERyiKHAIS81hLMWHs3SNk5nkuUU/TAYyMEag9kpbyt3ywwI3QDK3Wmuf0O87UGRvPme5KJ7iam5pAAOJfFqmBEANJ0IieOpeJGK7dK7hwzULW6v/l6Jo/8ov6mqWz/Ep1yMVIIxhYZBh209NtHiJ1k81nkYJHFkboHAEtrLQdPLJLv5jjY1I6ZR7bkG3CWa3grCDm7SdbB/vFAJ2cLOwU0B8j1DVuIgp8XLfnjjtUeM746reV9odL+0DXYuD4qv0a/1KXFX7dU0pKdMwrms6ClVRfSWqDiNZSkfKhUcsryOMBUjE3yFvRGO4Tn6uUw0CHxt7mcqUauQTVxJ/28DfuM8+8/k1aYcg/BUh/dcLG6O/Nwt9WdcKZfw3HWKpAUDkIAFs5mYQoSWrm+t7/sa7EG/hhS3BMxDpKm6Fv2wbIiMDwIQNUMUvpYo/HpkQn4FAMIlWc8A2Vgc+7zWW1UG7CmMNk8z8NwqCMDgCjiatx4HPJdqnL2Jvhvt9KpTcDzZN9j3OBXBLv5Wr+P9ZYn++uzv6m6EEswrGa2qxxNyjZo0WdTNadMoEQMOEsHjwaE2AQaDmho4/815uNxuTpVS4hBJ9y+eA4ymVPDgJFlBuyMSjIOCR5zZ1PjvcIMfos5YTdGkS3ABSJoAuqF21mNIk7c5UrstsH0jqdqfMSlLiH3MmoXqOjEbBvsPn7SKJeXAPJMWd8E1+t88IEE8LHZ7i9/VxOtdUAC3lhFwec0rdBEJpl5kzgCh9UyaRIKP793woNyO74YQjglNURZzBGubz/EZO5gc0wS5KnYfUkMihDK/wy3xJAD3fr/c/63QqIyknlm+P3JkFOoDUNUBnT7saDJoXQDhYOjiRetiT6j32R6JnZq+5ZGDhyupKtUw92SADKCexaXYcIR7Nz7TcqfsWPBKZeTayM/0mP8fXCMUrsZj+SiYGGFGxthSYILlpAsnWORyBT1jQDzrQedkqH0xjWAt0v5l69eyRzOT+ZHLbe/tFrVXjSPEdqwg6VvZ5GwM7UishHc51G/589AKAEaUb4H3eNhCIdxTCfwDG3/qYet5xsqEaXqXYB7CKBJGzJpAEGuw8IAEkBCqS3a4SwATUVN+7kfdy2ydKnZzENeXQysNLSnzjiXA8F2VCKIfy/mCptVhIxrKkHORaJnUXkLTNO/lwC3/azH/HZiT4WBB+xK35B4oQ73fFujfm5BwqtF4S2Y8iNzWABOvNdgXN47yrypB7gjIG2UuxHrbKVvB9i2I4b+WoGq3UdxDoajUoVM2t5RjWHtWss6vlngVsFJNlZDKUxwiWQt6jPC7n8yXssPv4nMqyqXE5VWqdxF7Gd6I4i6zOSlL2mOhchvfI5h3t4fO7+He7yAgwjDvleAOC2M5lt5LAblBED5DSA0Lv0VHpxrje2Su6P2HhjmXkAToIOQXD0lQl2HNnXVdaTrYd0iKAIu0zyzi52e/TTxEk41XyvjPbFSlkMMGt5QNJNlKuLp1NiwA622dWxnSqXaEeigNsPVjLh4vToAeQngawG6TIgVFdDzkMGxPZbQdYIi0C7O4T7RWW06Klk2kYSV4ECA+fAQvFBKshALdHgSXSIsCKWZ1bQm3B3WaOjPx+blvNIXdO73I8qKmH/AfamEC6S6FQBiPdRSqUnBV6nFmBEjK6Qj0CePgM0BiXMT+vkLtdoBJpr9JCMEIlmhIAEz1BT6d7Hw+FBTnPy2wQVUKObezp7bbqqnYEaRPALliunZrzUJxQ/dU2mSFhs1u5gQcjfQ2QMIEsCuTeYJiH7EMBxbJhdCsY7v5wXwPk72CYB1dh0wWagR4gCQciNdhMi/YGw4z5R2eOrzlXgHI6SruXYCvbuG/1xfsfdXp6cb4AFet1AG5Pgx5A2gTYDF0bD4YAmc3JlxEbbrwnMPLem6I70r1XPmJRm3+mAvhDfhIHDw4xIhc0lmmlsVBb4D92i9j3iy1Shd06AMQ8IYCcRhtqM7o5DzMrM6rMYPtf071XPkEu3jmyNnA/C/o3zMokZ5zOrkDfRfNbA5cuq4++m8EqZhV202Qo7l4wrMFwJlhVwhE2JQBqurT3iooAk2oD94GF8O8DxEk+oEfnrhl9WlGYRIvlSkg0T7QIcsFhX35oAImkI3yO2Xkktaj8gIUtwQt51zCsHyFOLFPLlgBsu96dWuUOFh5cLRtL02AHLE87GzOUZdQRAjBs2CqKqidIUeh7KYUqUWgmm0KL2RTa4nytcgdqmU2DmIFZoANwSAPQBqtgelhEYwEy4TNYLBKyglw0o4H4Mh+udrhaOQUZM8omjEFG7H8JZ3wAOWnJYmFAMXWF+krLjk0nSgVZTCspFNiuE8nQIJiEQyaQdFgsknwTjDMcn2LI+iKXTabzc8T/HVo75ozGGd3P2ZfOTyRC2ZgDMzQGIOEIARobdkRDkfLt/PJGHei87O5bNK7qiCYwFqoXNASpHemEnGDdMRk07c/hSOBpImhurI/KRf0FtZ7CTgMIl0OhDIZTTvCA2jrR9Dyp0g/Y6Nj9chRE4m/szZqGjh8yEM9hMpwTagu+wXpzaVd/xwP5uPD9gLAJhYKxPNMASUjWmhKAtYBk/R8dvF9OQgZyDUWCj7DwftWJ6xm5txS4318auC3USit0AavdDBbrNmQgMxmd27QAtyDvfdy5MVP1cY4AidSp5udzMESKW0CM/TuQdvngBCsOXPRwbkSWq0jfD0X8K/cg3ZWPK+2ET51oZSIS4keZzM3gGAFkCDvLuR1F1BO0ZHrP6+GIfwH/1bc7fe1EYjpcUEY0l/2En+k63tE8oyNvRtk11aYhdCkhthkc9AGs8zjlcYyglLCkrnM5m0IqAjU6qgmSSM4jmqZqMI3v84RAWt48PfoY5LjDbJcOCWwHVZ2FcwSIswnks1QBRUUAica6jqUL1vr/qGnwY37xF+wfk5QbhTcRxBoC5VLWnueneh/5WxXw/FAk8BYgrdjT1Xl/JlZTpQLFLhZoBgfBJBwjQLce/aDGF9DNAs/y99WL7q2sbrpxa49T98wHsMP6Mu8umrdylN9XUjYFCQ4ihF1C0OvJXAgSdzJRprB5sIiPr0hVY7BWOIb//4+ymuBt4Qit2o3inlzzE2w1gMhTDSC76EIR/BCs8n1V+KQW+ItT98wnJEItbn/M7HySKF+f3xqYpCHMZ0mZxi17aSr3MjJxIobKQZnPWuHnOuk/WVrf/XzKlXcQtimwVEN+MhZLysluUAmpvsabnUxmAylKAgwVyTUB1zERvs9G/hw+vmFwgurhATUWuKs11K5mIryEKO569/2uh7KVAVOujCOgI6zmjbGMNIUjwa/GdTE72Si4CmcJkBgMM7Vli80RTgfJGaHhG+8JLKmsEDNRUW7mz5Zz6K3A5tGp3Lz+56TxwdtDEVrdJ/RVB0pZ6iZOHR+UKVvtB8oRTmdz8AUmwqpd1B9yc7WcowSwnxVaPF2hTiG5lHQFt57/9/Tx/qn8fOellWMZ4SC+xndLVTXEAvZrIfR7mxq6noAMmBw+irMDPESRS/hB11dAyRXhSGDOkrroQ27UyVkNIB0YC/eNimhatNNI5DXo/Bkf/izU4j8XFZzHzvRlqc48NTorEK5QVPWKUFvgHb7IvbtErM3N1laAMnHY3r0RPAsf5Dp+I7Zr9w2337Cjw8k6OUoAnWiDYt3H5RHAATQ2dD7Fu6dCq/xHUQndjKBMTybqSAlMBpnwfEUFliwJycE1FKuWTu960bkaJ6Aoqb9/ruPXfBUVZ4daymbw3/9bp+rkKAFiGG/3Wc0BQzr8upXgK5hJXVlG43Wd7/DuxrlrRn+3TC29jnXBv7FCODTlCzKJWNBmaKDOCEWCrxPS6j0i9lOntAIB2g2C2VQPgqAqvwm1Be/o2tOxyAk5cpQA8kGxquqRff4HOi/V7hg1wI5c9D0n71vsSC6kb2I/4fYzx/m/Dqh8RzqS6VyTyXQCv6+7y5WSpWyDr9N1WN08I/qntK5pEwx3yNcBuMVfGpgSatn9dTkVP51rOd0NOhDTfYrZeUoERPII4AKSfsIDfPjAgraa01RS57AgT4U0pmYboe8RjSkX4bbAP4gwouvipyklyHZyNgDiOaBUPB9aVXZxUhOmBMcJQATt/NBNCZCOHehh6Eja8N8Krx4xj3zlsxDxehmcK72r4rH8bps1FRuZDL8HQffv7ul8eCjTLuRIOP9+tNl5Ioox2b5FrNC4rocMqTZMKCpVngmvqT5/ycyeN4bzlwzALQ1gimJaH5wLWGKEF9n5Q/a9GtlsuIKf/w0sYOelddFEF+WFoOCFZWMC28NtsE4naGuuiz4DJt2palmJZcPHcrNJdnXOvmvMYyNHaUv5DrOGVBXpF2i+P8yPBM9aVtcx7HlEjhNAILVb9QTxk/M0QBaQcBiNvvSHQi1jJoOiMhFgmlWrPBQkl8E2qAgN4bbgB0TiwTjhz5bVR18bXE4hNn2HMAnu7jnd23h3/aKWmp+jqrSyH2IacO3TSsBBGtFvF6z1nzbcxUKOE8AucZ6nAbKPxoZumbx89q3LYJEW8H+ThfhGFjTz5axDxzhWDgt8CAvYRHqbzeF1QsefJ9Yr2I0B7bsOoKmh6w9z14w+sdxX1sIfv2J3YzkRUFPhLj6sH06FHSdAXyzeXuqz8rnIMjO4h8zh9vmwE6BzFR+ukpEoQFWvZUm6CmXi77SBR7OG+S47z98NRwIyn3Tcuvxn15Mkere2fTUUCS4Y0roKxLqFLcHVzQ0dfx5qLR0nwKbHez868tJALLlg4zOQKjPUMjKQbveVB2eRDMPyHJsR31FUuIY1wszE/CEHgDah0CUsosHJdRWhFv+bqOCDdgN+qkJySvnlQ62a4wRYtw708KVG9IdJZmV0LJEPxCNADiJpQxtaIdxWfQKBNpOPv2U2tuMUSKFDrNaLyNHfUGvgIibTo5YaCuFiJvGoofoCjhMgWQnJZlMCaKBIezAn5qd7MIdc28y7OXWtsGAs+q9gEtSx8F3gxhJPBfBuGlFyVygSeJsFSE6Zf02A+Afp8J7o7vxImmuN9dFn2Jxq4Ps/aH4l1FQUk/nghaHc1x0C2DjCwnOE8woyBwQkJ+LNbas5tBSUbyHht9EiPW4qMCb2IRzDh3L7piq7VKSEBoMQboN+AogRUIXdYLJQFfOwK/vBHQLYhEhRvFmheYvkEstmuc1vDXxOQ/omS+01ac1BGhpK0BjRtp9LIXQacmh1VwhARJYhUryu0MJAsq//NVgMCxeOD5ytInwDCK+0yv/rNlj2tsd7O/8x1PKuEAAV68R56A2GFRYWg2iGqEyG/vTUqTBn0mX+c4iJwO/5qxnQDPuBfjqciBiuEKB3h9ZeNdL8PCEcwo5VWcK29FBIkL2AsK7zST6U2+wFbTWnaqDcL8cFXL85wSeAfd8bzk9cIYBcxhdqC3YY8zQOAOnsBOM1tQBdQ1ZVHvISJCflhdsCrofFZ7O6Iy7EJcsatncN53du9QINJM47IAGM8z7DEfYIUPhAVvm1lvOAiB7jRvGkVH0H/v2TccBrlzV0Zn8y3ACSifNMF2UkQ6R4KHDMbauRU5vLzM6znOxurIteIg/nraka5/OpJyMpsnv1ODYUapHoMC4THDyzgD/LVv4dIPGsjrRuaV3qyzfd0wA2aW68ECnFgTKhTLAKlJCcAmFMoV4+s/cD3snt4f2LyaW0o7dBycs7oU8u/HGqfu5pAJ02oGoRIkXxukKLAXahENk+GlIoxOT6X8fXkrtGANtEZ+QNhhUDFJu8ECKDKVEPBNcIoAvaoCmW0aJrIYMxID1kB3YawG79iNtwjQBLZ3RuDkeCe1jED+gAycXWC9b6D05pcbWHvIFdJAh2YgtTA4Dh50I7/+2TzQpgYpWQR4AChq0GyHBGmP3hJgEk/ZndaEoAJRErNK1YMx5yFzfeExiJCAGz88Rt5Gbo2pjBKn0G7hIgMRhmjiJKnFeMqBoZ5/d7wIWBA/hntqfDuEsAewfH6wotYNgFw8Us9wBJuEsAwSaQxVhAMeYNKybY5QODDCfEOxBcJYCu0wbNOh2CpwEKGHYOcKYT4h0IrhIgtr1ro1oTILMY9nK26K3LYEQiPIeHQgParPxDym4XqISrBJALE8IR+Jgl3XRRhOqv5ofU8zc36+EhO7DVAFnuApVw2wmG5FiAKQEUdpR45xGg0LCYXy3BOGsfoK+wNYBEMljuFyxKeI5wAWLeYVWHmwVHS4B25EJwNNcJINjOUyxWyKPirQsoRPgU1fK95oIDLOE6AexmhXrrAgoUqq1mLw4CCBIbFItAYuh1hRYk0G7FXw70AEm4T4A9/e1QYXEbxHGGw7QYXF847SGDsM0H9tlo0NmA6wSQeV3DbeU7WNLNAqWUSIdpORjL4TwUDjwfYABEKPOGnWB2vtSnSXvRI0AhwW6aS7xITCCJZFeoKQEosTzyyUzUxYP7uLm1qsoqnDoB6d16NCcavIwQgI37dstZgZ4jXFAoQ83GAcYPcyVZekYIYLcugLxZoYUF+1mgOWH/S2TIB7D+gz0NUFiwfZ92EUMyiMyYQEjtqrUK8DRAIcFupZ/IDQdYIiME2Nof3egvDQjT1DoIYxaurK5sntWzNRP18eA68qILVCIjBJAOT7gNP+TDcWZlhM+YO/JKJurjwWXYDYJlORTKYGTGCYa9wXJNCaAl5o54BMhzyBieLOCHW6Uy2kPx4tIAEpjIG/Yls/Ne2qTCwBg1MA4BTRfCElDPivre3gxWyRKZ0wAElnnDFM8RLgxoNssgc8j+l8icBrCbFu1pgIKAXRco5UAolMHIGAHiOrVrmsXCGG8wrEAgJoBFQoCi1QBKX2wDaKWm59k2POK8xaA5mfzAQ+aBiTXephA51AMkkTECNN24tSccCfRyU191oPPScTp1fHDceujIqRbCw/BASBPQMhx0kRJAItkVeorZeTVhP3oEyGfYjAHEhJ5T7zejBEg6wqYEABKeH5DHCLWMDCDiKLPzRBTb9HjvR5mskx2yoQFMoSieI5zP0LFkopVA8bvfaCTSziFklADGJCiLtEnkpU7Na2igWDdgOTQLdAAZNoGsHSD0QqTkNQhxgvUygNzz7zJKAEH6BsV8lNwLl57nsF0HkCOhUAYjowTY8Ejvh0deGoiZh8zD0fNWjvIvn7W9M5P18uAYrFOi5tgYgERGCSAdoNBlRvSHI83KlPhKZCviESA/YakBFBDFbQIZSKwPNiUAJVYTvZDBGnlwAHWtUEYIh1j5AL07tOLWAAnImPCWqyU8PyAPEYzX1GKJ+XxfAui496bojkzWaSjIAgGsQ+J5C+TzE+izywaTe12gEhknAKG+AcHrCSo0qDahUHJpHfBgZJ4AcbXd5q6eBshDCH5vlsHPcnAQTCLzBADRbjVfnHHo7Lug9O450JepOnlIH4qN5iY9+/nADoSME2DpjM7toUgwyi1C4EDnZUbJERWBwwGi72W6bh5SBwGOtxwF9jTAp+AH9T7vDkgACdLwTN55BMgThFb5j+K3doxV757oj+dEMNz9kRUCEFA7t/SnmZ1XkFYsivj/3lTX+ZdM1svD8LGotWo8v7Df8fs0TYhHBH0vbO75OJP1GiqyQwCkJ/iBXW123gitjfjMotbgrU31HfeB0YngIdcQivgvB1RauN2vsSn6p1xd6poVAuzcKh4aVYnL5dwfszL8UMtRgXvCkeB0EmJBY0PnU5msowdzzI8EJ/qAmrmRunIo5ZFEi9t1ShVZIcDdc7q3hVoDjSzgjbaFEU5DVVkfags8JYiWNdd1PgKeRsgKFqyuOVYrUW4lom+DZQ7gT8Hmz+vvPdL5oNt1SxVZIYDEcx9Ebz9jfOAyRDxrKOXZLDpXRTw3HAls4Ie6Zo8i/vPO6V3/dLuexQ7ZJT1iVOByfk/XclN+gezRtwpwtg8IdsWJpufaKrDByBoBpE045b7dX/NVlD/Dwn3UkH+IOJFfQGM5KbeFIoGn+KU8iP27f7Xk2p2fuFjdooKM71ntC35JUeFKJJr6aSSPoUp+Ig0SCPrGsobO11yppEPIGgEkZAbJm1eWnVdeBo8yCU4c1o8R5eLKL/LBF8FXcW84MuJFfui/AyF+/96jXS/ncquTi5jfGhirAlzEjcuF/FwvYlmvMk4MubkfBG75CXBaU0P0t87W0nlklQASK2Z1br51GZzlCwTWsG417RmyRCLvwOlMotNBVX806bLAtvClwE4zPUmC/vzepq5X1y2Gfmdrnt+Yt6ZqXKmqnQGonMta9Fx+iMc6cmGiDwXQFfnShZ11AkjcPh92AkSvCbf6f0OorDAbJR46cDS3YF/m/ZflCswjxwf7whF4lTXE8yDgtTjCXzd+EH2zSEiBi1qrxiFqJ7DvdCLrzdP4q9O4XQ8OKpL2TUjm+iRcvX2bPl92cqR9wQwhJwgwgCX1nf+16N7KR6GiZDFrg+v5qxInrsuEkjEZkxoCQHZfTKoNxENt+Ba/ur/z9++QgHfZbH2H9sTfkVHsnLhvJsFadITqr56ggG8S/01HsU6cRLJVJzp+IFZPKtbMkEDwPG8LltR3POPSHVxDThFAIil832EVfUepVhImgOlJAXYYKEP1Hs/7441Pxvw8FXCECuG2wDZuzz7kN/shS82HJMSHoMBm0inKZaJKXHRSPBbluvaCu12yuHBl9ei4SlUqagHWZgcpgGP5hkF+JgczcY+QMVW52BH7Dkbhp/+7JvVGoKu/CCF+1NzQ9d+u3cRl5BwBBrB8Zq+cOzIrvHrE98lXPotf9nX8Mg/NzN1xNMvNcbw/zvikJGevDixjUFkMS0sh1BbQkWA7IexgGsjVTtt528GSt5PNgRjb1nEmUhxQxMHY80YknXeV7QUVSNEQSePfVhBiOco9QAXfexQLdhV/rpT+zf6rJ3CfY/cE/EAwencIHhY6/KR5RvRPGb25C8hZAgwg0b2584dTp8JtR14SuJBb4mn82i+XI8XZrpuRCQWhiutS9Rk5xGQJY698KrU40Drj3jL7He53PjcgB7QQxP1xwv+3rD66Jdv1cQo5T4ABGN2a66JyFPgRae+WBAKXcqv5FZaRf+Hv/NmuX6FBOrX83ytMwl+CEL9srO96K9t1cgN5Q4DBSPYaPcSHD8FiUBbU1kxho+RiBOVCfm9TzOMOebAC2/SyZV8PAh6LIzxeSC29GfKSAPtgMYil0PUiH8ntB3PvgPKyKv9pbGmfzYaHnGZxhllOgmJGsoV/mzXoi+yP/FmPw/qlMzrfzna9Mo38J8B+uPMW2A1gzBzdO3v01tWVtT6t9CRU4HP81k9i5/JEdlwPQze7SHIL/Szu0oT5G2+vk9BfoZh4yUtMXoAEOBBuv3arXIEmt18OfCf9CK06cBRodIxCytHcCh7NfKjlhnEc270H5R05iAQBbEkuPn9H8IYC3xUYf7unr/sdmaw821XMRRQFAQ6EpB/xKh++uv85OQOybFTgCJXEOPYrDiUVxrLWGMunEhuinwVuDO+r3e6NYqHeiUS9BNjNHzuYnHLS3xY+8Qlvm4HEppge27RNbP3IE/Lho2gJYIVERIrou3z4rl3ZJFmqtRiNZr9jBGoo+/JHIOkVREopKKQRKCoLsYbAVEIUbI7orGF0So4PsFm2hwvsIp12CdB2CYV2abS7tyu2o9cTanfhESBNJMkie0sKvsekEOERwENRwyOAh6KGRwAPRQ2PAB6KGh4BPBQ1PAJ4KGr8DzoIKZprCdR8AAAAAElFTkSuQmCC;" parent="BbYELcP-yc5a0bBlkMtF-12" vertex="1">
          <mxGeometry x="261.88123563828213" y="93.42624765478422" width="63.657818181818186" height="63.657818181818186" as="geometry" />
        </mxCell>
        <mxCell id="BbYELcP-yc5a0bBlkMtF-14" value="" style="shape=image;verticalLabelPosition=bottom;labelBackgroundColor=default;verticalAlign=top;aspect=fixed;imageAspect=0;image=data:image/svg+xml,PHN2ZyB4bWxucz0iaHR0cDovL3d3dy53My5vcmcvMjAwMC9zdmciIHdpZHRoPSIyNTYiIHZpZXdCb3g9IjAgLTAuMDAwMDMwNTE3NTc4MTI1IDI1NiAzMDkuMTAxMDEzMTgzNTkzNzUiIHByZXNlcnZlQXNwZWN0UmF0aW89InhNaWRZTWlkIiBoZWlnaHQ9IjMwOS4xMDEwMTMxODM1OTM3NSI+PHBhdGggZmlsbD0iIzlkNTAyNSIgZD0ibTczLjg3MSAyODIuMDUgNTQuMDk3IDI3LjA1MSA1LjI4NC0zLjk0Mi0yLjIyNC0zMDEuNTYxLTMuMDYtMy41OTgtNTQuMDk3IDI3LjA1MXoiLz48cGF0aCBmaWxsPSIjZjY4NTM2IiBkPSJtMTgyLjA2NSAyODIuMDUtNTQuMDk3IDI3LjA1MXYtMzA5LjEwMWw1NC4wOTcgMjcuMDUxeiIvPjxwYXRoIGZpbGw9IiM2YjNhMTkiIGQ9Im0xMDcuNTcxIDExMi41MTMtMTguOTg0IDIuNzY0LTg4LjU4Ny05Ljk4MS4zNzUtLjk4MyAxNC4zNzUtNC4zMTMgMS41MjkuODY2LjM0Ni0uODY2IDkwLjM3NSAxMC41NjN6Ii8+PHBhdGggZmlsbD0iIzlkNTAyNSIgZD0ibTAgNjMuOTg4IDE2LjI3OS04LjE0NHY0NS4wMjJsLTE2LjI3OSA0LjQzeiIvPjxwYXRoIGZpbGw9IiM2YjNhMTkiIGQ9Im0yNTYgMTMxLjA2My05MC42NjEgNC44NjktMTYuOTc1LTEuMTY0IDMuMTk4LTEuMzMgODguMzc1LTUuMDYzeiIvPjxwYXRoIGZpbGw9IiNmNjg1MzYiIGQ9Im0xMDcuNTcxIDExMi41MTMtOTEuMjkyLTExLjY0N3YtNDUuMDIybDkxLjI5MiAyMS40MTR6Ii8+PHBhdGggZmlsbD0iIzlkNTAyNSIgZD0ibTIzOS42NTYgODIuMjI1LTkxLjI5MiAxNS42OTF2MzYuODUybDkxLjI5Mi01LjQ3OC41MzEtMS4wNC0uMTg3LTQ1LjE4N3oiLz48cGF0aCBmaWxsPSIjZjY4NTM2IiBkPSJtMjU2IDEzMS4wNjMtMTYuMzQ0LTIuMTI1di00Ni43MTNsMTYuMzQ0IDUuOTg1eiIvPjwvc3ZnPg==;" vertex="1" parent="BbYELcP-yc5a0bBlkMtF-12">
          <mxGeometry x="35.54228181818182" y="93.07121951219513" width="52.10746072727273" height="62.89392436363637" as="geometry" />
        </mxCell>
        <mxCell id="BbYELcP-yc5a0bBlkMtF-24" style="edgeStyle=orthogonalEdgeStyle;rounded=0;orthogonalLoop=1;jettySize=auto;html=1;" edge="1" parent="BbYELcP-yc5a0bBlkMtF-12" source="BbYELcP-yc5a0bBlkMtF-15" target="-h5bWP533X3mAIDnknY9-2">
          <mxGeometry relative="1" as="geometry" />
        </mxCell>
        <mxCell id="BbYELcP-yc5a0bBlkMtF-15" value="" style="shape=image;verticalLabelPosition=bottom;labelBackgroundColor=default;verticalAlign=top;aspect=fixed;imageAspect=0;image=data:image/png,iVBORw0KGgoAAAANSUhEUgAAANIAAADxCAMAAACJfxnoAAABF1BMVEX///+dUCX1hTb7v5NrOhmYTST5hzecTSCqaUe8YyupVyefVCr0hjn1gzLugTWkVyqaSRj1fiL2lVT82sn+8erAlH/7u4z7vpH1gS2XQQBiNReVPAD7uoqYSRy7i3X96d3/+fVhJwBlMABiKgCYRAn0exj2jET1fiV8QR10PhteIADw5uHl1Mz0dAC0fmT2k0/ZdjBoNRCNSSHJvLb94c780rT5rnr3om36y7DNrJ35u5f97ePGn42vdVn3nWPj0MjYv7OlXzrLbi3WzMa4pZuAWUL8yaWzbEPCflXio3i+eVD4roP70rzTt6q8YCKlTAt6UTmGZFKokYSaf3G2opiUdWOFPAJ2NwTVbRxtRS17W0vv2MvgnnKVmaTfAAAI10lEQVR4nO3d+VvaSBgHcIlgVIgcIoeARm6NiqJiVy2KB2qrbb167Pr//x07M0lIAhMyCUcS+35/6NN92s7kwxyviVlnZgYCgUAgEKtIp25fwZgjrWVrXz8SStrNxUJLmcrxuttXMqZsf87FAoHQEsdlKu1Dt69mDDmfz/KBgEziOCGeWHb7ikbMRUcGqSSMqj64fVUj5DGsgjQSRkU+uX1lziL+w5d7ID0JoWpc1+3Lsx/xrKwHGUkYlTkR3b5GW5FW8CYXMCdxePtLJd2+TuagutoPopAQKu6T6ivtUkBUEkb5oPqiulqggExIPqi+5/M5ngoyJaGdouLh6qvVVTskXKga3qy+j3zZHDSU5M3q21dX7ZIwiuuKbit0Ec9i5aEea5K3qi+lrjohIVSmcuKF6kutq85IHN7TXa++JnXVMcn16ivfr46X5Gr1Pf9sWldHIrlXfVfsgOyREGrHjX1ihXnOOSBxFSABCUhAAhKQgAQkIE3mqsWzr8ui10ji+YrjG3p8A56JV6pfH6jNu0GSLlbCuXIM3fs6GUT5BpzDTwTilQaFNW0S4nQQhydNOXicvq3cgCsdIFa8f7SmSZIu1sJZwuk1ZfOGXrsB13UiZGoVTseaFkl6XCvnehxdUzZu6NVvGPeRVJY6WtMgSY+7AcQxa4rxht74YJvSGWKhSfgpOWkS5mQNo0NpiuGb2f0Ptk06xKP1LTRJ0tz3bJn+XZ2+poS4MORxOuXB9pA+FyZLWmRuSqgJJoWK+mDbDySzx+kmD7b9QeLIk+e+Smb2pN43JIIykOZNHjP6iMQJjY9HSgAJSEACEpCABCQgAQlIQAISkIAEJCABCUhAAhKQgAQkIDGSInMfjBRqXu5xcyS+J4Wa9fpmEGV1dTXYjC5c7i1xDDAvkkJN1aLPKk6wHlpUZWY2T5GwZYBCowU3m4sLZtPRGyQmC2XQNmnT0V1SKESbYvZl9fCCNh1dIlFXy6g0Mh33ltwgcUt7lwsLi2Surcqrfn/fIUX/DzfrKM1m01w0OZI6Q+a4JaKLhm5+BDe2NjZKpWKRBbe/XyyWShtbW8U/Tz8wI8RY6SZH6udV8KuZonR1cP388hTc2sI6hDOOHfpP7ECQ0o+nl+frgytJRP9szc6bcKOReqsVDYZVdYz3vZgpId3r89vNn2AJDx36ZaMY/HPzRhyS8e/aJFH3fSuSsiOj1VpvhqKoflzu7S0NB/aTtIjS9gHKNhkQaqxIaFdt4t2ovon3I3XfN8pMSbTqsqokaABqPhloTrLOIIkgVMNglM1Rkw2QOrnsz58/f5Gpb7W0V3sJ1pthGfg7U6vtjEDazZXLsUJhqMLkYtAF/4p9//a7VqkampSurg4Orl+fX96e0NwvbuC1TbYujDRpDS/0DbJh/SuvD+cied29oHVXRD2XhnaK9sliSd5htvDafHp7eUbdHwy/AFFEsx8hsfHlifSjGAlSluyjhf6qbFjji6hsmTebuEu1P7y1bBEC2iZfnl+R4GpbGrFrUcIDeY2RBDLKkDB3SXDPWHCFepxClxAIBAKBQCAQCAQCgUAgEAgEAoFAIBDI3xRRTJ6urx8ePhwdPRwenibFKXSZ7PW3vo56HLFLMZnEgGXUYrc7m87n8ymSNA7+TT4/2+2i3tbHrFMc3dlUvteh3DXqMoX7PDpaxsakVb/S6SkWYEB3djad0gvS6VlqlD9MpUlHD8vmP0rPOtJ/6NPDH57aKb1LpU+FiHqWu5aHsc/YycaiX+7e782aoiaVb7WOj9uJRjUiZDKjvvcQ4wPR2y93d+/v9/cpW9eRzrfaiWpmx/jzveb5AM8XCoVYALV6byZDnw9WtFUFikBi8cKNddS3U3hyFfhC+GhHBZrPk3zrONHg5Mvg4gMkNaTN8C0esxSZg5qC0xCC9WtRWkSyQtaHrHDqO0Q9XyEQ7tzeKgOIRzBFxiWiWNT+TUl6WTTCCcMUQ0m9lT6rLnAy+ak7JsObXiqQ58NohlCux5JEErVQqO9Ykcjv4+GdUtuxBpa6tmOm1R2TkMroUll/inw4Qv9IRycRBx7DSLWRaB+3Wl09hGFVqzq0ZZ68v999ue2E+Zg8EO6QIok2duS13YnFYYLTfnt/L+tcIM0thDq2t32WpFp46Q97A3mCJHnfR7sj2orsVRIqBe3I7UZVkHcxt0hKiIyX930HMmxJkDqn28VcJvVoZGmzfxUiTzGZ0r8je4RkGLTOLa7VVFpaP8VMqp23SHpZAC+03hdYsgV/EWJZuT1J0ssKgc5du8oZl4tvSaoswLFZ/EMyuw4gAQlIQAISkIAEJCABCUhAAhKQgAQkIAEJSEACEpCABKS/gWRylpmfSJmdvuMp6SfO+YdEPe+Vdi6gT0j0cwEJauD0Rl+QzEEkfWdsmpHwsbyTJuWoR4YONDX8jE0Sw0moNBLi1BonyzNn9k5CtUmqiMZjd02aYjgJFUd3Xm0/CZ8unDiR38u1ebirXZJ8Xu3FWmdwtHpNMZ5Xi9M7VVhPwpOteqK9ZjwNksxaCRhZSlM2ThUmKPnsZ5WkTDZR/1emRcJJXqx0tElImrJ59jP5cPAJ3VGuN9lGPaF7JBK5oB4LNeXghG7ShnKO+gn9nfZpk3DEc3LwuMNz1EkLYzztfiwkheX4tHuLuEWaYIAEJCABCUhAAhKQ/nrSWY71/wpzQBJ23CDNnH+2g7JDsnEDPu70bujHSrJ5Az7uSPIN/RhJDm7Ax45aY0OxkdD9qpMb8HGH/jjdAUkY4QZ83KE9TrdNsngOPPUMPk63SRJqQld0W9Gfx+GooSQhzlk92HYnhsfpNkiMD7bdie5xOjPJxbrKFlR9C3ZILtdVtmzTqy+V5IG6yhZq9aWQMvGWF+oqWyjVd4DkobrKFvGsXB5CEmo1T9VVtoj/xMqD3+dSQIIPQST66quRPFtX2XIRzvJGEqqrfgbhqNVXJgnxhne/UGDPOam+mOSLusoWXH3DkUzFJ3WVLdJaueajusoW6aOBIBAIBDKJ/A+fhxDcbQledAAAAABJRU5ErkJggg==;" vertex="1" parent="BbYELcP-yc5a0bBlkMtF-12">
          <mxGeometry x="146.193716" y="91.95121951219512" width="56.76155454545455" height="65.1360941818182" as="geometry" />
        </mxCell>
        <mxCell id="BbYELcP-yc5a0bBlkMtF-3" value="Route 53" style="text;whiteSpace=wrap;html=1;" vertex="1" parent="BbYELcP-yc5a0bBlkMtF-12">
          <mxGeometry x="33.18" y="161.98" width="56.83" height="21.22" as="geometry" />
        </mxCell>
        <mxCell id="BbYELcP-yc5a0bBlkMtF-16" value="CloudFront" style="text;whiteSpace=wrap;html=1;" vertex="1" parent="BbYELcP-yc5a0bBlkMtF-12">
          <mxGeometry x="142.65" y="161.98" width="63.85" height="21.22" as="geometry" />
        </mxCell>
        <mxCell id="BbYELcP-yc5a0bBlkMtF-19" value="S3 Bucket" style="text;whiteSpace=wrap;html=1;" vertex="1" parent="BbYELcP-yc5a0bBlkMtF-12">
          <mxGeometry x="261.35" y="161.98" width="64.72" height="21.22" as="geometry" />
        </mxCell>
        <mxCell id="BbYELcP-yc5a0bBlkMtF-20" value="&lt;b&gt;&lt;font style=&quot;font-size: 14px;&quot;&gt;Frontend&lt;/font&gt;&lt;/b&gt;" style="text;html=1;strokeColor=none;fillColor=none;align=center;verticalAlign=middle;whiteSpace=wrap;rounded=0;" vertex="1" parent="BbYELcP-yc5a0bBlkMtF-12">
          <mxGeometry x="144.5745083655549" y="5.143076923076933" width="60" height="30" as="geometry" />
        </mxCell>
        <mxCell id="BbYELcP-yc5a0bBlkMtF-22" style="edgeStyle=orthogonalEdgeStyle;rounded=0;orthogonalLoop=1;jettySize=auto;html=1;exitX=1;exitY=0.5;exitDx=0;exitDy=0;entryX=0;entryY=0.5;entryDx=0;entryDy=0;" edge="1" parent="BbYELcP-yc5a0bBlkMtF-12" source="BbYELcP-yc5a0bBlkMtF-14" target="BbYELcP-yc5a0bBlkMtF-15">
          <mxGeometry relative="1" as="geometry">
            <Array as="points">
              <mxPoint x="88" y="125" />
              <mxPoint x="112" y="125" />
            </Array>
          </mxGeometry>
        </mxCell>
        <mxCell id="BbYELcP-yc5a0bBlkMtF-13" style="edgeStyle=orthogonalEdgeStyle;rounded=0;orthogonalLoop=1;jettySize=auto;html=1;" edge="1" parent="1" source="BbYELcP-yc5a0bBlkMtF-10" target="BbYELcP-yc5a0bBlkMtF-14">
          <mxGeometry relative="1" as="geometry">
            <mxPoint x="110" y="880" as="targetPoint" />
            <Array as="points">
              <mxPoint x="80" y="678" />
            </Array>
          </mxGeometry>
        </mxCell>
        <mxCell id="BbYELcP-yc5a0bBlkMtF-21" value="www.victor-a-medina.com" style="edgeLabel;html=1;align=center;verticalAlign=middle;resizable=0;points=[];" vertex="1" connectable="0" parent="BbYELcP-yc5a0bBlkMtF-13">
          <mxGeometry x="-0.3278" y="1" relative="1" as="geometry">
            <mxPoint as="offset" />
          </mxGeometry>
        </mxCell>
        <mxCell id="BbYELcP-yc5a0bBlkMtF-10" value="" style="shape=image;verticalLabelPosition=bottom;labelBackgroundColor=default;verticalAlign=top;aspect=fixed;imageAspect=0;image=data:image/png,iVBORw0KGgoAAAANSUhEUgAAAMAAAADACAYAAABS3GwHAAAACXBIWXMAADl5AAA5eQEu9LaMAAAmrElEQVR4nO2dC3wbxbX/z5mV7PgRuzEBQsjDlkRMakvqbeAmsSVBCFBoWlIChaZAKfdTaCmhvPrh8rhAgJZAKY9Cy6M3UC4tob3wp/dyKVCgASzbSUrTEtnmVcl2wAltgZQk2Ikda+d/RnZSSL2zK3l3tZL3+/nIq2RntWdn5jevnTnjAReXCYwn3wa4uOQTVwAuExpXAC4TGlcALhMaVwAuExpXAC4TGlcALhOaghfAgQ0NlVXKlAhwdgQgn4MI9RzgYOQwGZA+HFU67gTOd9L/b0Hgb3KOb9F/ru9RP1gPXV1D+X6GfDLR468gBTB7bvQQbwlfzgFPQcB/BfEcKM5k/nz8695jKSBOpa919B8RSmRQ6D/9rGYXhKJtwOG/0zt3Ptbb++qHdj9LPnDj7x8UlAACjZGjOWOXU6IcTwmhoP4lUijxy+jPseLjqaq62x+KPqGm+S09Xa2bTDHYYbjx988UhAD8Dc2LQFG+TxG9cLyJpglCKSXocsWDy/3h6G/UNFzV0xlPWHU7O3HjTxtHC2BmffP0klJ2GyJ+xc77UkIuYQqc4A/Ffsw/6r+uu3vjdjvvbxZu/OnjWAH4QtFTKOFWU4n1qXzcP9PMRbgIKsuX+Ruiy1Nd8bZ82JErbvwZw4ECmOcNhCrupMj7dr4tEVAmmkmx9JIvHLume1PLzfm2Rx83/rLBUQIYGZIrf5wS73P5tmU/PAxgFXXy/KlE/Fv073S+DRoLN/6yxzECmBWMTPEiew4Rjsj64swYNcbp+DLn0AVpfGuI7fmgr2toJwS2s+mserLHW36QF3k9VzBIbdSjkUOT6Lhlcxsqzb5B7dqDUon+UwE27snaTgtx4y83HCGA6dPnlXsZPkXtRsOJxwkK/xsV4KHugXefgmRycMyASYCtAOLc+/R5jT6/ps8NU+ubJ1eXsFOAwTcoQZuN3pcy2En+UPnPUwn4Kv1TNXqdlbjxlztOEAArm1rxGCVGk+ErOH8ch9WVydfaunK96ftvtu2kFH2Ivj7kC0cilIg3ipLNyLVUkp3uD0ffS22KX5jr/U3Ejb9xkHcB+IPRlVQqfN5QYM5TVFWfR+3ItWba0L2ptZUOi3yhyHKG7C76PlXvGkrsFYFw5PfJTa0/N9OWbHHjb3zkVQB1jbHjAfnVRsJSjf3o9kH1m6Lkscqe7kTrozPrm18umcQeMVSacXbv7MYFf9jcuf51q2yS4cbf+MmbAMSIBWN8NVWHTDcwh+up1FppvVUA77zZRk1eOI46aw9Qyfo1aWCECi8reRBGmh/cDvv24safOeRNAFXKAaLqnqkfUr0smWi93XqLPsFwKtFydiAU7acG6/nSkAgL/MHYeamOlvttsi2DG3/mkBcB+ObGDkPxllAHlfNV3fYn3j6SifgKfzh2AHUwT5MGRL6qJjD/0W3JDTvssMuNP/PIiwCwhF9Ff6X3pjbrs92JuKH2rYWou97rP6dsasWnKcM1agWiZsiUmvKSFdsAbrLDKDf+zMN2AdQevqCWOkhnykPx93btHjgL8tQu/Dhbt24cmDUlenqJAn+ilCrRDomXHhwK/eiviUS/lfa48WcutgtAKfGeq39fftnWtza+b4tBBni7K/6aPxi9hUqxazQDIRxQqVZ/+a8jY+OW4cafudgtADFicZYsAFXdG1OJ/I4Nj8Xg34dXldZ4z6NEPFgzEIOzwdoEdOPPZGwVQG0wGs3MDpSAHG60y55s6Otbt8tfE/shfb1VMxCHow4NzZ+xJbGhzwob3PgzH1sFoGSW4mlDpdfbqY74k3bZky3pHTtWK1VVN1IpNmms85Q5sVT1Hkdff2bF/d34Mx9bBYAAi3VCiKo77x03LcSib384JjKY5rAeY3gMWJSAbvyZj20CqK2tncQRj5CtSVXT3LGl1164Ck8i005ADhix4r5u/FmDbQJgkw85bNSbxphQsbW9pyu+0S57ciU9zNeyEkk25Hy2mJ4shv/MvK8bf9ZgmwA4eupl55Fz4UrDMSuFtNj8evzdQDi6lSyePtZ50Y4tmVI6B7bCq2be140/a7CvBkA++x/elv4Zqt7fsMuW8ULV9Jv0JGMmoMCj4Cw6vGrmPd34swbbBICcTZakH9V86la7bBkvCHyLLDOmVVZl+j3d+LME+0aBkFfJHpoJ/5OFAidbJZmROnmTTb+nG3+WYF8fAMArG8HgHIbtsmW8cIS07FmohPOafk83/izBvhqAw26Z6gnbVD9uRjwny87vtuCebvxZgI0vwviHsiocAXXXkToFeooDpOe5eFazcePPCmwcBoV35aLHOXbZMl44Yr3sWdIM3jX/nm78WYF9AlBZEqSrV3nQLlvGw8GhUAUdfLIw6h56VpNx488abBPA4GD/a+VlFZrnxSzHmY1N/nc621N22ZQLlVAV1Xkj+6F42WP2fd34swbbBCAWaARC0W5KKU31l6LnBDr8xC6bcoOdID3N+QYr7urGnzXYOhuU1B1HWfWHXCz2cHICivjS8bXP41bd3I0/87F3OrSqPg2KcrZ2AJxf1xgNOXVnEV+4+STKgNormohhTD9t1f3d+DMfWwXw4R54plrhuzJ7S2nAFBSeDE630SzDIGdXy8evec/mxLpXrbq/G3/mY6sAhFu+6lD0fygSlmsG4vxUfzAyL9XR6qipvYHG5tOohP2sNBAHSxekuPFnPrZ7hVDTcKfi0U5A4eqPA95HX+eDA9xnC2oC86tAYXdIA3EY3DMM91ltixt/5mK7AHq64r/3h6JrKaGO0QojNnkIhGLXJhMtK+2zTJua8tJ7QTJ9V8BRfWjz662WD9+58WcuefEMR3XcTdQU1EzAkTD8Gn+weUOqo+0Zu+waC38wuoKaHF+VhaHnSQ+lVW1vByZTjPG3R4Uf2GXTx8mLALoT8d9RKfYslWKaY8IjXo+Vx2pDzcf2JtrW22nfXupC0VPp8CPdgCq/x84XUEUXf8Dvfbujtdtyg8Ygb96h00N7zveUlHQKF9mageicAsozdcHY0p6OlhYbzYPMZg/CSZOe+3EOfduHVNt9cBZV/A2qV9lk1j+RNwH0vrG+NxCOXAvAbpOFE/vcKgjPUdhzbdpNBP2hiHA+e6MoRvWDpy+wctMJLdz4M4e87hBDCXInVeXHyaryDJndCNnDFHYx/2jgIqt2Hp8xZ+Ghk8o8D9INpQ6o9sHhnmSiLW+uSNz4Gz/53iNMpQT5ClSWb6BElHo9EFCYsynsib5g5IrujtaHwSQvCDNmLCwrneK5kH5fOG+tNHINdTJfSiXiuj76LcaNv3GSbwGAKI184chJFCPrhZ94vfAU5iD6PBgIRf9DBX6buuOjNcLjWC73nj03eojXC+dwgIvE7xq+kPPuXbsHvkzf8r4MsVDjb/fQoOgg5z3+8i4AQfem1rdqG5qO8XiU5yiJDjR0EaKPAf6EVVXdnhkR4fg8x+GXU4nBN7U2YRYlVUk1NqLiOYpSQTQbFolOmoGG6j4osf+8G4aOcZL78cKKP/4Wxd/iLW/8/oMsLrMMRwhA0NvV/uqshujRXg9/AQEPMXwhtW8p/FI6LkV6nEDYM8wh1oucf0CZVXSuKJ1xMkX9QRT7s3BfxyybZBuBEq8rPbz72C1dr/wl64stxo2/3HCMAARiI4XZoVizB/jjqDdvRBsPJU2AEi3wySTCXNJsH2LLIaq2z9zyxiuOKLnGwo2/7HGUAASbEy09EAg0BcoPuUN3h0EbEG8pgavXpRKtN4GDPS/vxYnxR7XJtdThXQUOjD/HCSBDMjmkBqc9wQCOp0T059MUBN5JChAvkRyXeJo4Kf44/8MeHBbTMRwZf44SgHABzqpnfp3apJdSbXtYvu0ZAcMKKi2BcOxVFdS71e19a3p7e23zW5MNjow/xPle8P7RH462kwTupprgMXCQE19nCCAQKPWVT/sWArtSb8VQHvkMA/YAq5p1fV1o1sqeRMtD4JSELID4I1E20Z+mQCh2Hajp65KdbUIIea8V8i4AsVCCM3Yrddpm5dsWQyDMUABWU0J+V8X01d2b2p7IpzkFGH+Hg6L8KhCOXsWH1UtSXW0v5tOcvAlAuPAoUZTVFCNHj2NwIX9QQjJQ/p8/FHsGVPhmqrPlHTtvPysY8XkZo/iDRQUZf9S0RI+yluLv4f4B/t2/JOPv5cOKfAgAqT24go43U7VYPt4f4wRlgB4O2En/2Mwzrrfhb8jYAPL0LuAMVcBKBLWC2qPVFLaOMq+fKl8/1b8+NDRhS/IwCCcC412+UPTfuxNxsaLJ6modfaHI+dQcE/PntWeCGkQv/jhVLyqHSuGxGYVPTwYzKd3qKdycT74XyPFhEL5WWQ5foGda0Z1ofXS8z5Mttgpg+px5U8vLKtbQ1+Ny/Y3RYbU2FfhapsLLH7Edr+S6u3ht7Wc+pVRVLiBBNFNSHEM/vjCnBEWczADu8YeiS3cPDZ5h1VvOaYHogZUV+Ag4JP6El7fy9OQmEgvVQlSTIxwJueQpxBoGuIaaRcft5NsvtHO3ePs2yQs1L/CAIjo+M7K9VpRSdHiRSvI1g7v7/9esaQijc2CeHf1cI+a2KF71ZEoMsYD7qGx/j7TzuUmlpRsDoeiyZCL+RzNs3IuvsfkIKoVFf0O6T/BYWBV/oxn1+dFPpoCbNKnsNOqMn0liWJj9L+I5lVDdVNoQXSZe6plhox62CMAXjJ3BgD9IJW1JVhdyvpOq5p/yPXh/9+stf7bIvH2MuuS7R3wCn25u4B62gkq2s6SLTvaDws+m3NbmDzYvM2s5Iv3WiYjKr0emNWeBzfE3KqxM/PkbFga4R7mY4uPfZG5c9kfMavV6oL2usfnLPZ1tz1tn7QiWC8AXjl1BVe5NxhZHjCB2PORcvWOYw11vd8T/bqV9WiRfa+uiw/nU2byqhMPl1JX4jvE+C9+8B9C0ZYiDqrqh1MM2o0EP0E6Iv1TXOuHgdoU/1HQDB+UiSvwLR+YU6UNhqxVFedofjFyQ6mj9qZV2WioA6uH/kB7mMjCY9zPTDkBd3d+P1/wl2ZqXUYH9ebujVWSgK6l5dJenBFZSqfoNlC/ze39ITS95p7PdtIzX17VuG5WoS0Dxrqfcoelb34nxl0q0/40OV1P8/dhbwqnjjmcavNRDfYv7/cHop1IdccsWzFsmAOoQ3kr5/jKj4amZmiCZnJNMtJradjaL0ebRN/2Nsf8CBg9kxrP3h8MgT/MvvdNl/gJ5UaL6wpEvMc5eGKspRK38TgR+tsPj7yx/Q/Q+UPA+yhuNRq5DhrdQK4J1b2q52Qq7LBEAlfzfowf8rpGwlPFVesxVqcTA9Vrz0J1EqrOlHQKBzwTKpq3kiP++d9RotKP59VRXvM2qe3dvam31hSLnIMdHPnZflZqYP0ipf78OurqGrLq3WYj4qa2tPZJVz/ghA3aBkWuoul1FBWo6lYib7nrGdAFQu+08ShqDXhL4e6qKZ/Z0tjxnth2WkkwOJiF5pa8x2goK/EIsPKdnuSaVaP2l1bcWY+X+YMxPtcCNlPu3UVx/lUr931p9XzMZmUvVu6IuFPmtAig8R9QYuOwWEn+f2e8KTBWAGK0Axu4xElYsjlCH0kt6Xm/fbKYNdtLdGf/NzMamI7yMnUkJ83277pvqaPkeZQYlDezhzZtaeuy6r9n0JFr/zzc3toB5+TN6s1ZFjUc138/qgrEtZrp4MU0A4tU8Zf41st0/9kJthRf5zoGTeyzyTmAnow6xrrf7viQ42+9pBWJ4dvqceQvKJlU8qfvugPo+CvBf181t+qxZBacpAhDTcKnL/jhkmgJyxMqgwW3Dy/r6Nu4y494uhY94fzBjxsLFpTUeEgEeKw1MzSXFq/wKYF7UjD6jKQIQHRo6/IuBoM+n0tuWQp/zO2su9tLXt27XdHXe0rKp5b8lEUSkgRHn+0MVq1IJYwMtMsYtAF8ouhg5fFt3vSjnG3bC9pMLYaTCJT9s3bpxoKZ8/pIpFaUvUHY6UhZWDLH7gpFnuztaXxjPPcclgKn1zZPJkAdQ500XNXveBkifZOckJ6dwYENDZZUyJQKcHQHI51BM1VMf6GAc2S19svALTsedI9MWYAsCf5MDvqly3NCjfrB+ohUY25IbdlQ3zv+iopSKDT4OlYVliPdT06lR1B653m9cAqguZdeKuS+yMBz4QDqdXtrblXkjOCHIOIwq4cspI59C8fOvIOI5U0SMlBMf+7r3WEplyNTMVG3AiPgvhf74Wc0uCEXbKBL/O71z52O5OrAqNHo6N/y1riG6TFGwRTr/CdFH/YbroQ8uz/VeOQugNrjwcCrN9F3bqXCx8FmT630KiUBj5GjO2OWUaMdT6ijjXaiSmUSGcKz4eKqq7vaHok+oaX5LT1frJlMMdjBiI5C6UOwCsfpOFo76C5f4Q00PpxLtnbncJ2cBKOi9nQ5eaSDOH091xP8z13sUCv6G5kWgKN+njLrQstVZIw6sliseXO4PR3+jpuEqp+4GaRY9iZYH/OHYEorTkyXBPAiKcLnyxVzukZMA/A3R5sxKKDnvfzRAneMiZmZ98/SSUnYblUI6e9+aCwlhCVPgBH8o9mP+Uf91Vnl7dgJqevB8hZXGZJMAqRr4gi8ciYipItn+fm41gAI36AVJp/kl+VrnaQe+UPQUyvir0cC7DyvIvHAUTdDK8mVUIC23cg5SPhH9AV8w8h2G7BFZOCoUxGQ5+fDpGGQtAH9jrIlKf739qdqpev5Ftr9dGMzzBkIVd1KMO6J2IxHOpFR8yReOXWPVjMl8093Ruob6P+fL3g+QAJpFyyTbgiBrAaACF8vOi1mR1D69JNvfLQRGhjTLH6fY/ly+bdkPz+iMSX8qEf8WOMVfkYkgT18O6GmXBlLwUvprnQCo9BfrUWUdEsGTogefze8WArOCkSleZM+JLUizvnhkaWKcji9zDl2QxreG2J4P+rqGdkJgO5vOqid7vOUHeZHXcwWDmQXmHJqyXQJJJeQ3qF9wUCrRf2ohTC3PhmRH+zp6tico/pdph+Jfmh2K1WX8oxokuxoA+bn0R3oNtU11+weFxvTp88q9DJ+iZzOc+UfdjfxGBXioe+Ddp8QU6jEDJgG2AohzYj2tWAj+a/rcIF4yVpewU4DBN0T1bvS+lEFO8ofKf55KZLYmdcRG2eYxfB1lWU0BiJV6XlU9j75eafQXsxIARe4ZsvOU5i+kTPaG4ABY2dSKxygzNxm+gvPHcVhdObquOCfExnHvi10W6SNGOEgEN4qawci1lBFO94ej76U2xS/M9f5ORIz1UzPvd/R8i7XCcEQhfLHrpCH/TIYFIDoY4s2bLAyCerfR3ysU/MHoShL+5w0F5jxFTZ3zqBBYa6YNo8N7izJbjyK7i75P1buGxLIiEI783qadIW2D8hg9v6IpAOEisi4YixpdM2C8BlDwNOl5Dn3JRNtThn+vAKhrjB1PzT5Dq9uo9nt0+6D6TSu3/BSroWbWN79cMok9Yqg24OzeWQ3RjXb52LEDkccCoWgP5fQ6rTCMqaIWMFcACHyJbIsQjlx4fCuaNqcY8WGMr9bxADECh+up1F9pvVUA77zZRl0GOI46hA8It4LSwAgVJQo+ACPNt7x7YjYJlTLZL5msnc/RWI0NBgVQF2qu11uypqZB+qKi0KhSDhBNHwNe2NTLkonW26236BMMpxItZ1NJ2K+7CwzCAn8wdl6qo+V+m2yzHMr8YvGVpgDEuxExV623Y90ber9lSADU7pRufExFS28xzUvxzY0dZmSin8r5qm77M/8+kon4Cn84dgDVy/LmKfJVNYH5j4qpxjaZZinC7SSJv1vWJ2WoiHc15ggARsakZQGKqu2PJfwqveFesbSzOxE36P3CMtRd7/WfUza14tMyPzti/+Ca8pIV2wBustM4ixE7zF+sdZL6SIvo8CO9HzHaB5APAaa5qaMe+aT28AW1qOu9jL+3a/fAWeCAdrVYRTVrSvT0EgX+RDld4nsVLz04FPpRsSxKUlGNM1Au1jpPaTjPyO/oCqC24chperuP9O/GrGfhORWlxHsu6MYLv8xJG2WLUR5/MHoL1QLXaAZCOKBSrf7yX0feLRQ8PD3cBorEAQnCDOFOXm9Cpq4AFKXs03JLeKqIZn2KEZ+zZAGo6bMxlXDe2Prg34dXldZ4hVMy7T3CGJwNRSIAMUuU+gEp2eBM2SQUjhqkTtd0BYAc5sra/xywaFYn1Qaj0czsShkcvmeTOVkh1sX6a2LCO4e2+0AORx0amj9jS2JDn32WWQiimHWgKQBkXBTe4xMAB16PEgXQmQ693ygUlMxSRm3E4v5UR/xJu+zJlvSOHauVqqobqRaYNNZ54VytVPWK3WV+ZrNp1qCqKWDar2kYgu7GgfqdYETpynzqBRasa779ITFrvmIfDSGaPo592ScWzfvDMSFQzWFRxlCs5SgKAaSRJaVuCLkZAgA4RGoE570GfsPxCO92HPEI2WivmuaOLf33wlV4Epm2AKjJmvWqKaeiiBpAkbyoN/AiU78PAHyabAqEh+FLgXBM72fyRnJTi6F16mzyIYfJ/JqKXVd6uuIbzbPMGtLDfC0rkXXa+GwxvVsMnxr5PUrbvA/15gzXnzRopAlkaFubQoejp152HjkXnX3Hr7QSG1EEwtGtZPH0sc6LfkDJlNI5sBVetdk02+EGtrTSFwCnDlVh7sScFQz5bPlkP9R9re4UhGc5epIxBSDwKJn3Oq/aZ1F+QOQmCEBjRKHYQM4mS4d7ubrVPmvGB2Y2u9Z+mLTKqmw0J4+YUgPwXROiGYS8SpZpmPDfWShwslUiZrHru33G5BGRd3XQfw+A+IKOZ66igHp6XllLj3MYts2YccIR0rJnoRpC7tGvSBB5Vy+MgRdh6hVU/i3KlwMo2+CwW6evUzil5ojnadn53bbZkieoQPtwJO/K0RVA96bWt3zhyHwSwc3I+bHF2xziH8qaQAioO6TmFOgptN0IQmZE60ObTLEf4YKGSn6R+UXe1QtuaDr06A9J/LEUPtRseFdeaBrbpd0JUAaolz1LmsG7Rn/L6HuUQsXSneILCa6yJEhX//KgXbaMh4NDoQo6SL13qHvoWV0yuAIYZXCw/7XysgrN82KW6MzGJv/orpCOpRKqojpvtD8c3bXdBVwB7EMscNFbZ1qKnhPo8BMbzcoBdoL0NOcbbDKkIHAF8DGodIyjrPmAXCyWcbIARHrq7FXA47ZYUiC4AvgYqKpPg6KcrR0A59c1RkNO9YDhCzefRALWXhFGDGP6abvsKQRcAXyMD/fAM9UK35XZm0sDpqDwBHG6jWYZBjm7Wj7+z3s2J9b9yTaDCgBXAB9DuDWsDkX/hzLRcs1AnJ/qD0bmpTpaHTU1OtDYfBrVUJ+VBuLguLXM+cYVwH6oabhT8WgLQLhK5ID30df54JDVYTWB+VWgsDukgTgM7hmG+2wyqWBwBbAfYnMPfyi6ljK65jZQYpOMQCh2bTLRstI+y7SpKS+9FyTTnwUc1Yc2v97qDn/uhyuAMeAAN1FTWm8ftGv8weYNqY62Z+yyayz8wegKarJ9VRaGnie9R4Uf2GVTIeEKYAy6E/HfUS3wLNUCmmPqI16jlcdqQ83H9iba1ttp317qQtFTwYD7P5LAvW93tHZbblAB4gpAg/TQnvM9JSWdwsW4ZiA6p4DyTF0wttTohgxmkdksQzi50nPfzqFv+6B6lU1mFRyuADTofWN9byAcuRaA3SYLJ6aJKwjPUdhzbdqNBf2hiHDee6OohvSDpy+wctOOQscVgATK0HdSU+g4WVMoQ2Y3R/YwhV3MPxq4yKqd22fMWXjopDLPg3RDqQOvfXC4J5loc7wrl3ziCkCOShn6K1BZvoFEIPUaIaAwZ1PYE33ByBXdHa0Pg0leJGbMWFhWOsVzIf2+cH5baeQa6qS/lErEdfc4mOi4AtBBlOa+cOQkylHrhZ99vfAU5iD6PBgIRf9DBX6buuOjNcJjWy73nj03eojXC+dwgIvE7xq+kPPu3UODooNcMMs484UrAAOIBUG1DU3HeDzKc5TFDzR0EaKPAf6EVVXdnhlR4vg8x+GXU4nBN7U2sRYlfUk1NqLiOYpysWh2LRKd3GxWpFDJ/9ZuGFq85Y3ff5DFZRMWVwAG6e1qf3VWQ/Ror4e/gIBSd5GfgPoHFH4pHZciRXcg7BnmEOtFzj+gkl10TtnIMlN+kPBlifs6ttkvxKLM35Ue3n3slq5X/pL1xRMUVwBZIDaimB2KNXuAP45682608VDWDlCmD3wyi2MueX4fYsumwfTwGX1dr2zL/VcmHq4AsmRzoqUHAoGmQPkhd+ju0GgD4i0v1SbXUod3FThgy6ZCwxVALiSTQ2pw2hMM4Hi97WOthjL/H/bgsJiO4Wb+HHAFkAXChTqrnvl1atNfSq2Vw/JtTwbE+V7w/tEfjraTBO6mmuAxKAAnvk7BFYARAoFSX/m0byGwK/VWXOULEqXYyrYpEIpdB2r6umRnmxCCWyvo4ApAB7HQhDN2q95OmY4B4XBQlF8FwtGr+LB6Saqr7cV8m+RkXAFoIFyglCjKaspRRxemZygMo0dZ6w/FHu4f4N8top08TcUVwD+D1J5eQceb0YB7bT04QQLq4YCd9I/NPOO6HP6GjA0gT+/iVL2oHCqFx2YUPj0ZzKT71lO4OZ98L5DjwyB8rbIcvuALRVZ0J1ofHe/zFBuuAD7G9DnzppaXVayhr8fl+hujw5JtKvC1TIWXP2I7Xsl1d3bh5a08PbmJxLKIRHE0ZeYjIZc0Q6xhgGuoWXTcTr79wmLZLd4MXAGMUhtqXuABRXQcZ2R7rSjl6fCiSplscHf//5q1i/xoRn1+9JMR6KRJZadRZ/xMEsPC7H8Rz6mE6qbShugy8VLPDBsLHVcAhC8YO4MBf5A6kCVZXSg8EQP+lO/B+7tfb/mzRebtY1RY94iPv2FhgHuUi6lm+DeZG5f9EbNavR5or2ts/nJPZ9vz1llbGEx4AfjCsSuoyXKTscUlI4gdIzlX7xjmcNfbHfG/W2mfFqmudcLB7Qp/qOkGDspFZPyFRl3XU9hqRVGe9gcjF6Q6Wn9qsamOZkILwB+K/ZAyw2VgMO/zzAsmdXV/P17zl2SrI0ZVUon2v9Hh6tlzoz/2lvAfUPY+0+ClHupb3O8PRj+V6ohP2AXzE1YA/lD0Vsr3lxkNT838BMnknGSi9Y9W2pUrox6fz/I3RO8DBe+jZ2s0ch0yvIVqQda9qeVmi010JBNSAFTyf48yyHeNhKWMr1I2WZVKDFyvNY/fSaS64m21tbVHsuoZP2TALjByDQNYRQVCOpWI32q1fU5jwgmA2r3nUea/2lho/p6qqmcUWmext7d3N/1dUReK/FYBFJ4jagxcdosvFOmbaO8KJpQA/MHmE4Gxe4yEFYtL1KH0kp7X2zdbbZdV9CRa/883N7aAefkzerNWxQs35PizumBsi90uXvLJhBHArGDER5l/jWz3lL1QZ/dFvnPg5B6LvDvYiRienT5n3oKySRVP6r47QChVgP+6bm7TZwtZ+NkwIQQgpjF7kD0OBrZ6zays2ja8rK9vo+4my4WCeH8wY8bCxaU1HhIBHisNTM0lxav8CmBetBD6PONlQghAdAjp8C8Ggj6fSm9bCn1dQ1bbZDd9fet2TVfnLS2bWv5bEkFEGhhxvj9UQR1/YwMFhUzRC8AXii5GDt/WXW/L+YadsP1k6Cq+zL+XrVs3DtSUz18ypaL0BYqOI2VhxRCxLxh5trujVXe39UKmqAUwtb55MiXkA6jzpouaPW8DpE+aCJPEtiU37KhunP9FRSkVG3wcKgvLEO+nplOjqD1sMs92iloA1aXsWsr8s2VhOPCBdDq9tLcr80Z1QtDTueGvdQ3RZYqCLSNuHTVA9FG/4Xrog8ttNM9WilYAtcGFh1O5r+8aUIWLhc8f6y1yFmIjkLpQ7AIFYLU0IOKl/lDTw6lEe6dNptlK0QpAQe/tdPBKA3H+eKoj/p/2WOQ8ehItD/jDsSXUPjxZK8zIsLEiXK580UbTbKMoBeBviDZT6X+iTrD3PxqgzvEER00Pnq+w0hjl9AM0AyF+wReORLo3tbbaaJotFKUAqMy6QS9IOs0vcdfJjvQHfMHIdxiyR2ThqC8lJsvJh08LkKITgL8x1kSlv97+Xu09nfFf2GWT0+nuaF3jD0XPl70fIAE0i5pVTLaz0zarKToBoAIXy86L5YtqGi6xyZyCAXn6ckBPuzSQgpfSX1cAToVK/5kg6dCN8qQYAbHDnkIi2dG+zh+KPUG15zLtUPxLs0Oxuox/1CKhqARAxdi59Ef6TAj6/YOJy/B1lCU0BSB2xvSq6nn09UobjbKUohIAlV5nyM5T6+eFVCLuyBVdTkCM9VNf4HeU0RdrheGIYk9isetkUbhdLBoBiA6aeHMpC4Og3m2XPYUKxdFd1NjXFIBwEVkXjEWLZc1A0QiAOminSc9z6Esm2p6yyZqCRcRRIBTtoZxepxWGMVXUAq4AnAQCXyLbYoUjFx7fVPssKlhUiqRfMlk7n+PnbbTHUopCAHWh5nq9JX9qGqQvelz+AWV+sXhIUwDUDJop5lr1dqx7w0azLKEoBMCQSTeOpt5ab09nPGGXPYVOMhH/IzWDumV9KobK5+jgCsARcGiSL3jhbts/e8QO8xdrnUTARXT4kW3WWERxCABIADLSfK1NdhQNKqpxBsrFWudJAPNsNMcyCl4AtQ1HTtPbvaV/NxbdLEar4enhNlAkDjQQZkwLRA8s9AmFBS8ARSn7tDQA56lCT6R8IGaJUj8gJRtcKJuEwtHAczaaZToFLwDkMFfW/ueAm+yzpshAFG/NNQWAjIvCxxVAPuHA61GiADrTYaM5xYWqpoAxzdMMoTA2DpRQ8AKgUkrq2YBTbW6XKUUHYkp6nrsCcAKHyE6mOe+1yY7iQ+VJUCTtS4SZ9hljDQUvAAQ+TTYFwsPwpUA4ZqNFEwgOU/NtwngpeAEY3RbIxXy4CdvI5pvCFwCHSbpuD10sAZG7Asg7SAJwyRNuDZB/ON/lNoPyhIj7AqfgBcARX5B5NnOxDhH3+bZhvBS+AEC9AoAtQgObX7iYBwf4cCTuC5uCF0D3pta3fOHIfBLBzcj5sW5zyGI43ylKfpH5Rdzn25zxUvACEIwmhMSfjYvL2BSFAFxccsUVgMuExhWAy4TGFYDLhMYVgMuExhWAy4TGFYDLhOb/A5LFXX2rLzoaAAAAAElFTkSuQmCC;" vertex="1" parent="1">
          <mxGeometry x="40" y="470" width="80" height="80" as="geometry" />
        </mxCell>
      </root>
    </mxGraphModel>
  </diagram>
</mxfile>
